<?xml version="1.0" encoding="utf-8"?>
<!-- Generator: Adobe Illustrator 21.0.0, SVG Export Plug-In . SVG Version: 6.00 Build 0)  -->
<svg version="1.1" id="Layer_1" xmlns="http://www.w3.org/2000/svg" xmlns:xlink="http://www.w3.org/1999/xlink" x="0px" y="0px"
	 viewBox="0 0 227.5 56.8" style="enable-background:new 0 0 227.5 56.8;" xml:space="preserve">
<style type="text/css">
	.st0{fill:#009366;}
	.st1{fill:#00539F;}
	.st2{fill:#FEC057;}
	.st3{fill:#F15D2A;}
	.st4{fill:#19459D;}
	.st5{fill:#0D9568;}
</style>
<g id="XMLID_2_">
	<path id="XMLID_110_" class="st0" d="M7.8,12.5l-0.1,0.1L7.8,12.5L7.8,12.5L7.8,12.5z M6.8,13.3l0.8-0.7
		C7.4,12.8,7.1,13.1,6.8,13.3L6.8,13.3z M6.8,13.3L6.8,13.3c0.3-0.3,0.6-0.5,0.9-0.7l0.1-0.1c0.2,0,2.4-0.6,5.4-0.6
		c3.5-0.1,5.2,0.4,5.2,0.4s3.1-0.8,5.8-0.7c8.3,0.3,13.7,3.9,16.9,8.7c0.9,1.9,1.6,4,1.9,6.1c-0.9-1.5-2.9-4.5-6.7-6.9
		c-7.2-4.5-15.1-1.5-15.1-1.5s-0.8,1.9-1.3,3.9c-0.8,2.9-0.9,5.1-0.9,5.1S18,27.8,16.9,29c-1.1,1.2-2,2.8-2,2.8L6.8,13.3L6.8,13.3z"
		/>
	<path id="XMLID_109_" class="st1" d="M20.2,26.2c0,0,0.2-1.8,0.7-3.7c0.4-1.8,1.2-3.7,1.2-3.7s6.3-2.2,12.9,0.8
		c5,2.3,7.5,6.5,8.4,8.2c0.1,0.7,0.1,1.3,0.1,2c0,1-0.1,2-0.2,2.9c-0.2-0.4-2.6-5.4-7.7-7.6C27,21.5,20.2,26.2,20.2,26.2L20.2,26.2z
		"/>
	<path id="XMLID_108_" class="st2" d="M7.5,15.1c0,0,1.9-0.5,4.2-0.6c4.2-0.3,5.2,0.1,5.2,0.1s-1.6,3.7-2.2,6.1
		c-1.3,5.2-0.9,8.6-0.9,8.6L7.5,15.1L7.5,15.1z"/>
	<path id="XMLID_104_" class="st3" d="M27.4,8.7c0.7,0.2,1.4,0.4,2.1,0.7C28.9,9.1,28.2,8.9,27.4,8.7L27.4,8.7z M19.1,7.9
		c1.3-0.1,2.6-0.1,4.1,0c1.5,0.1,2.9,0.4,4.2,0.8c-1.9-0.5-4-0.8-6.1-0.8C20.6,7.8,19.9,7.9,19.1,7.9L19.1,7.9z M9.5,11.3
		c0,0,0.2-0.1,0.5-0.3c2.7-1.6,5.8-2.7,9.2-3.1c0.7-0.1,1.5-0.1,2.2-0.1c2.1,0,4.1,0.3,6.1,0.8c0.8,0.2,1.5,0.5,2.1,0.7
		c4.8,1.9,7.5,5,8.2,5.8c0.7,0.8,1.3,1.5,1.9,2.4c-1.7-1.9-4.7-4.5-9.7-6.1c-6.7-1.9-11.3,0-11.4-0.2C14.6,10.4,9.5,11.3,9.5,11.3
		L9.5,11.3z"/>
	<path id="XMLID_103_" d="M8,16.2c0,0,1.2-0.3,3.5-0.5c2.6-0.2,3.8-0.1,3.8-0.1s-0.8,1.4-1.8,4.9c-0.8,2.8-0.9,6.3-0.9,6.3L8,16.2
		L8,16.2z"/>
	<path id="XMLID_102_" class="st4" d="M24.6,54.5c0,0.1,0,0.1,0.1,0.1c0.1,0,0.2,0.1,0.3,0c0.1,0,0.2,0,0.2-0.1
		c0.1,0,0.1-0.1,0.1-0.1c0,0,0-0.1-0.1-0.1c0,0-0.1,0-0.2,0l-0.2,0c-0.1,0-0.2,0-0.3,0c-0.1,0-0.2-0.1-0.2-0.2c0-0.1,0-0.2,0.1-0.2
		c0.1-0.1,0.2-0.1,0.4-0.1c0.2,0,0.4,0,0.5,0.1c0.1,0,0.1,0.1,0.1,0.2l-0.2,0c0,0,0-0.1-0.1-0.1c-0.1,0-0.2,0-0.3,0
		c-0.1,0-0.1,0-0.2,0.1c0,0-0.1,0.1-0.1,0.1c0,0,0,0.1,0.1,0.1c0,0,0.1,0,0.2,0l0.2,0c0.2,0,0.3,0,0.3,0c0.1,0,0.1,0.1,0.2,0.2
		c0,0.1,0,0.2-0.1,0.2c-0.1,0.1-0.2,0.1-0.4,0.1c-0.2,0-0.3,0-0.4,0c-0.1-0.1-0.1-0.1-0.2-0.2L24.6,54.5L24.6,54.5z"/>
	<path id="XMLID_99_" class="st4" d="M26.8,54.2c0-0.1,0.1-0.2,0-0.3c0-0.1-0.1-0.2-0.1-0.2c-0.1-0.1-0.2-0.1-0.4-0.1
		c-0.1,0-0.2,0.1-0.3,0.2c0,0.1-0.1,0.2,0,0.3c0,0.1,0.1,0.2,0.1,0.2c0.1,0.1,0.2,0.1,0.3,0C26.7,54.3,26.8,54.3,26.8,54.2
		L26.8,54.2z M26.8,53.5c0.1,0.1,0.2,0.2,0.2,0.3c0,0.1,0,0.3-0.1,0.4c-0.1,0.1-0.2,0.2-0.5,0.2c-0.2,0-0.3,0-0.5,0
		c-0.1-0.1-0.2-0.2-0.2-0.3c0-0.2,0-0.3,0.1-0.4c0.1-0.1,0.2-0.2,0.4-0.2C26.6,53.5,26.7,53.5,26.8,53.5L26.8,53.5z"/>
	<path id="XMLID_98_" class="st4" d="M27.6,53.2l0.2,0.6c0,0,0,0.1,0.1,0.1c0.1,0,0.1,0.1,0.2,0c0.2,0,0.2-0.1,0.3-0.2
		c0-0.1,0-0.1,0-0.2l-0.1-0.4l0.2-0.1l0.2,0.9L28.5,54l0-0.1c0,0,0,0.1-0.1,0.1c-0.1,0.1-0.2,0.1-0.3,0.2c-0.2,0.1-0.3,0-0.4,0
		c0,0-0.1-0.1-0.1-0.2l-0.2-0.6L27.6,53.2L27.6,53.2z"/>
	<path id="XMLID_97_" class="st4" d="M28.9,52.6l0.2-0.1l0.1,0.3l0.2-0.1l0,0.1l-0.2,0.1l0.2,0.6c0,0,0,0,0.1,0c0,0,0,0,0.1,0
		c0,0,0,0,0,0c0,0,0,0,0,0l0,0.1c0,0,0,0-0.1,0c0,0-0.1,0-0.1,0c-0.1,0-0.2,0-0.2,0c0,0-0.1-0.1-0.1-0.1L29,52.9L28.9,53l0-0.1
		l0.2-0.1L28.9,52.6L28.9,52.6z"/>
	<path id="XMLID_96_" class="st4" d="M29.7,52.2l0.2-0.1l0.2,0.5c0-0.1,0.1-0.1,0.1-0.1c0.1-0.1,0.1-0.1,0.2-0.1
		c0.2-0.1,0.3-0.1,0.4,0c0.1,0,0.1,0.1,0.1,0.2l0.2,0.6L31,53.1l-0.2-0.6c0-0.1-0.1-0.1-0.1-0.1c-0.1,0-0.1,0-0.2,0
		c-0.1,0-0.2,0.1-0.2,0.2c-0.1,0.1-0.1,0.2,0,0.3l0.2,0.5l-0.2,0.1L29.7,52.2L29.7,52.2z"/>
	<path id="XMLID_93_" class="st4" d="M32.7,52.2c0.1,0,0.1,0,0.2,0c0.1,0,0.1-0.1,0.2-0.1c0.1-0.1,0.1-0.2,0.1-0.3l-0.1-0.1
		c0,0,0,0-0.1,0.1c0,0-0.1,0.1-0.1,0.1l-0.1,0.1c-0.1,0-0.1,0.1-0.2,0.1c-0.1,0.1-0.1,0.1,0,0.2C32.6,52.2,32.6,52.2,32.7,52.2
		L32.7,52.2z M32.9,51.6C33,51.6,33,51.6,32.9,51.6c0.1-0.1,0.1-0.1,0.1-0.1c0,0-0.1-0.1-0.1-0.1c-0.1,0-0.1,0-0.2,0.1
		c-0.1,0.1-0.2,0.1-0.2,0.2c0,0,0,0.1,0,0.1l-0.2,0.1c0-0.1,0-0.2,0-0.3c0.1-0.1,0.2-0.2,0.3-0.2c0.1-0.1,0.3-0.1,0.4-0.1
		c0.1,0,0.2,0,0.2,0.1l0.2,0.5c0,0,0,0,0,0c0,0,0,0,0.1,0c0,0,0,0,0,0c0,0,0,0,0,0l0.1,0.1c0,0-0.1,0-0.1,0c0,0,0,0-0.1,0
		c-0.1,0-0.1,0-0.2,0c0,0-0.1,0-0.1-0.1c0,0.1-0.1,0.1-0.1,0.2c-0.1,0.1-0.1,0.1-0.2,0.2c-0.1,0.1-0.2,0.1-0.3,0.1
		c-0.1,0-0.2-0.1-0.2-0.1c0-0.1,0-0.2,0-0.2c0-0.1,0.1-0.2,0.2-0.2L32.9,51.6L32.9,51.6z"/>
	<path id="XMLID_92_" class="st4" d="M33.5,50.6c0-0.1,0.1-0.1,0.2-0.2c0,0,0,0,0,0c0,0,0,0,0,0l0.1,0.1c0,0,0,0,0,0c0,0,0,0,0,0
		c-0.1,0-0.1,0.1-0.1,0.1c0,0,0,0.1,0.1,0.2l0.2-0.1l0.1,0.1l-0.2,0.1l0.4,0.7L34,51.6l-0.4-0.7L33.5,51l-0.1-0.1l0.2-0.1l-0.1-0.1
		C33.5,50.6,33.5,50.6,33.5,50.6L33.5,50.6z"/>
	<path id="XMLID_91_" class="st4" d="M34.3,50.4l0.2-0.1l0.1,0.1c0,0,0-0.1,0-0.2c0-0.1,0.1-0.1,0.2-0.2c0,0,0,0,0,0c0,0,0,0,0,0
		l0.1,0.1c0,0,0,0,0,0c0,0,0,0,0,0c-0.1,0.1-0.2,0.1-0.2,0.2c0,0.1,0,0.1,0,0.2l0.3,0.5l-0.2,0.1L34.3,50.4L34.3,50.4z"/>
	<path id="XMLID_88_" class="st4" d="M35.1,49.9l0.2-0.1l0.5,0.8l-0.2,0.1L35.1,49.9L35.1,49.9z M34.9,49.6l0.2-0.1l0.1,0.1L35,49.7
		L34.9,49.6L34.9,49.6z"/>
	<path id="XMLID_87_" class="st4" d="M36.5,49c0.1,0,0.2,0,0.3,0.1l-0.2,0.1c0,0-0.1-0.1-0.2-0.1c-0.1,0-0.1,0-0.2,0.1
		c-0.1,0.1-0.2,0.2-0.2,0.3c0,0.1,0,0.2,0.1,0.2c0.1,0.1,0.1,0.1,0.2,0.1c0.1,0,0.2,0,0.3-0.1c0.1-0.1,0.1-0.1,0.1-0.2
		c0-0.1,0-0.1,0-0.2l0.2-0.1c0.1,0.1,0.1,0.2,0,0.3c0,0.1-0.1,0.2-0.3,0.3c-0.1,0.1-0.3,0.2-0.4,0.1c-0.1,0-0.2-0.1-0.3-0.2
		c-0.1-0.1-0.1-0.3-0.1-0.4c0-0.1,0.1-0.3,0.3-0.4C36.3,49,36.4,49,36.5,49L36.5,49z"/>
	<path id="XMLID_84_" class="st4" d="M37.6,49c0.1,0,0.1,0,0.2-0.1c0.1-0.1,0.1-0.1,0.2-0.2c0.1-0.1,0.1-0.2,0-0.3l-0.1-0.1
		c0,0,0,0.1-0.1,0.1c0,0-0.1,0.1-0.1,0.1l-0.1,0.1c-0.1,0.1-0.1,0.1-0.1,0.1c0,0.1,0,0.1,0,0.2C37.5,49,37.5,49,37.6,49L37.6,49z
		 M37.7,48.4c0,0,0.1-0.1,0.1-0.1c0,0,0,0,0-0.1c0,0-0.1-0.1-0.1,0c-0.1,0-0.1,0.1-0.2,0.1c-0.1,0.1-0.1,0.1-0.2,0.2
		c0,0,0,0.1,0,0.1l-0.2,0.1c-0.1-0.1-0.1-0.2,0-0.3c0.1-0.1,0.1-0.2,0.2-0.3c0.1-0.1,0.2-0.2,0.3-0.2c0.1,0,0.2,0,0.2,0.1l0.3,0.4
		c0,0,0,0,0,0c0,0,0,0,0.1,0c0,0,0,0,0,0c0,0,0,0,0,0l0.1,0.1c0,0,0,0-0.1,0.1c0,0,0,0-0.1,0.1c-0.1,0.1-0.1,0.1-0.2,0.1
		c0,0-0.1,0-0.1,0c0,0.1,0,0.1-0.1,0.2c0,0.1-0.1,0.2-0.2,0.2c-0.1,0.1-0.2,0.1-0.3,0.1c-0.1,0-0.2,0-0.2-0.1
		c-0.1-0.1-0.1-0.1,0-0.2c0-0.1,0.1-0.2,0.2-0.3L37.7,48.4L37.7,48.4z"/>
	<path id="XMLID_83_" class="st4" d="M38.8,46.9L38.8,46.9c0-0.2,0.1-0.3,0.1-0.4c0-0.1,0-0.1,0-0.2l0.1-0.1l0.9,0.9l-0.2,0.2
		l-0.6-0.6L38.8,46.9L38.8,46.9z"/>
	<path id="XMLID_82_" class="st4" d="M45,36.5l-0.1-0.1c0.1-0.1,0.1-0.3,0.1-0.3c0-0.1,0-0.1-0.1-0.2l0.1-0.2l1.1,0.6L46,36.6
		l-0.8-0.4L45,36.5L45,36.5z"/>
	<path id="XMLID_79_" class="st4" d="M40.5,46c0.1,0.1,0.1,0.1,0.2,0c0,0,0.1-0.1,0.1-0.1c0.1-0.1,0.1-0.2,0.1-0.3
		c0-0.1-0.1-0.2-0.2-0.4c0,0.1,0,0.1,0,0.2c0,0.1-0.1,0.1-0.1,0.2c-0.1,0.1-0.2,0.2-0.4,0.2c-0.1,0-0.2,0-0.3-0.1
		c-0.1-0.1-0.1-0.2-0.1-0.3c0-0.1,0.1-0.3,0.2-0.4c0.2-0.2,0.4-0.3,0.5-0.3c0.1,0,0.2,0.1,0.3,0.2c0.1,0.1,0.2,0.2,0.2,0.3
		c0.1,0.2,0,0.4-0.1,0.6c-0.1,0.1-0.2,0.2-0.3,0.2c-0.1,0-0.2,0-0.3,0L40.5,46L40.5,46z M40.6,45.4c0-0.1,0-0.2-0.1-0.2
		c-0.1-0.1-0.1-0.1-0.2-0.1c-0.1,0-0.2,0.1-0.2,0.2c-0.1,0.1-0.1,0.2-0.1,0.3c0,0.1,0,0.2,0.1,0.2c0.1,0.1,0.1,0.1,0.2,0.1
		c0.1,0,0.2-0.1,0.2-0.2C40.5,45.5,40.6,45.5,40.6,45.4L40.6,45.4z"/>
	<path id="XMLID_76_" class="st4" d="M41.5,44.8c0.1,0,0.2,0,0.2,0c0,0,0.1-0.1,0.1-0.1c0.1-0.1,0.1-0.2,0.1-0.3
		c0-0.1-0.1-0.2-0.2-0.4c0,0.1,0,0.1,0,0.2c0,0.1-0.1,0.1-0.1,0.2c-0.1,0.1-0.2,0.2-0.3,0.3c-0.1,0-0.2,0-0.3,0
		c-0.1-0.1-0.1-0.2-0.2-0.3c0-0.1,0-0.3,0.2-0.4c0.2-0.2,0.3-0.3,0.5-0.3c0.1,0,0.2,0.1,0.3,0.1c0.1,0.1,0.2,0.2,0.3,0.3
		c0.1,0.2,0.1,0.4-0.1,0.6c-0.1,0.1-0.2,0.2-0.3,0.3c-0.1,0-0.2,0-0.3,0L41.5,44.8L41.5,44.8z M41.6,44.1c0-0.1,0-0.2-0.1-0.2
		c-0.1-0.1-0.2-0.1-0.2,0c-0.1,0-0.1,0.1-0.2,0.2C41,44.1,41,44.2,41,44.3c0,0.1,0,0.2,0.1,0.2c0.1,0,0.1,0.1,0.2,0
		c0.1,0,0.1-0.1,0.2-0.2C41.6,44.2,41.6,44.2,41.6,44.1L41.6,44.1z"/>
	<path id="XMLID_73_" class="st4" d="M42.6,42.9l-0.5-0.3l0.2,0.8L42.6,42.9L42.6,42.9z M43,43.1L42.7,43l-0.4,0.7l-0.1-0.1
		l-0.2-1.1l0.1-0.2l0.7,0.4l0.1-0.2l0.1,0.1l-0.1,0.2l0.3,0.2L43,43.1L43,43.1z"/>
	<polygon id="XMLID_72_" class="st4" points="43.4,41.3 43.5,41.4 43.8,40.8 43.7,40.8 43.4,41.3 	"/>
	<path id="XMLID_71_" class="st4" d="M44.6,39.6c-0.1-0.1-0.1-0.2-0.1-0.4l0-0.3c0-0.1,0-0.2,0-0.3c0-0.1-0.1-0.1-0.1-0.2
		c-0.1,0-0.1,0-0.2,0c-0.1,0-0.1,0.1-0.2,0.2c-0.1,0.1-0.1,0.3,0,0.3c0,0,0.1,0.1,0.2,0.1L44,39.5c-0.1,0-0.2-0.1-0.2-0.2
		c-0.1-0.1-0.1-0.3,0-0.6c0.1-0.2,0.2-0.3,0.3-0.4c0.1-0.1,0.2-0.1,0.3,0c0.1,0,0.2,0.1,0.2,0.2c0,0.1,0,0.2,0,0.4l0,0.2
		c0,0.1,0,0.2,0,0.2c0,0.1,0,0.2,0.1,0.2l0.4-0.9l0.1,0.1l-0.5,1.2C44.7,39.8,44.6,39.7,44.6,39.6L44.6,39.6z"/>
	<path id="XMLID_68_" class="st4" d="M44.7,36.9c0.1,0,0.3,0,0.4,0c0.2,0.1,0.3,0.1,0.4,0.2c0.1,0.2,0.1,0.3,0.1,0.6
		c-0.1,0.2-0.2,0.3-0.3,0.4c-0.1,0.1-0.3,0-0.5,0c-0.1,0-0.2-0.1-0.3-0.2c-0.2-0.2-0.2-0.4-0.1-0.6C44.5,37.1,44.6,36.9,44.7,36.9
		L44.7,36.9z M45.5,37.3c0-0.1-0.2-0.2-0.4-0.2c-0.1,0-0.3-0.1-0.4,0c-0.1,0-0.2,0.1-0.2,0.2c0,0.1,0,0.2,0,0.3
		c0.1,0.1,0.2,0.2,0.3,0.2c0.1,0,0.2,0.1,0.3,0c0.1,0,0.2-0.1,0.3-0.2C45.5,37.5,45.5,37.4,45.5,37.3L45.5,37.3z"/>
	<path id="XMLID_65_" class="st4" d="M46.1,34.9l-0.5-0.2l0.4,0.7L46.1,34.9L46.1,34.9z M46.5,35L46.2,35L46,35.7l-0.1,0l-0.5-1
		l0.1-0.2l0.8,0.2l0.1-0.3l0.1,0l-0.1,0.3l0.3,0.1L46.5,35L46.5,35z"/>
	<polygon id="XMLID_64_" class="st3" points="15.5,3.2 16.3,3 15.6,4.7 15.8,5.6 15.1,5.8 14.9,4.9 13.4,3.8 14.2,3.5 15.1,4.4 
		15.5,3.2 	"/>
	<polygon id="XMLID_63_" class="st3" points="19.6,3 17.8,3.2 17.8,3.7 19.5,3.5 19.5,3.9 17.9,4.1 18,4.7 19.8,4.5 19.9,4.9 
		17.3,5.2 17,2.9 19.5,2.6 19.6,3 	"/>
	<path id="XMLID_60_" class="st3" d="M21.4,4l0.9,0l-0.4-0.9L21.4,4L21.4,4z M21.5,2.6l0.8,0L23.5,5l-0.8,0l-0.2-0.5l-1.3,0L21,4.9
		l-0.7,0L21.5,2.6L21.5,2.6z"/>
	<path id="XMLID_57_" class="st3" d="M24.9,3.2l-0.1,0.6l0.8,0.1c0.2,0,0.3,0,0.4,0c0.1,0,0.2-0.1,0.3-0.2c0-0.1,0-0.2-0.2-0.3
		c-0.1,0-0.2-0.1-0.3-0.1L24.9,3.2L24.9,3.2z M26.5,3.1c0.1,0.1,0.2,0.1,0.3,0.2c0.1,0.1,0.1,0.1,0.1,0.2c0,0.1,0,0.2,0,0.3
		c0,0.1-0.1,0.2-0.2,0.3c-0.1,0.1-0.2,0.1-0.4,0.2c0.1,0.1,0.3,0.1,0.3,0.2c0.1,0.1,0.1,0.2,0,0.4l0,0.2c0,0.1,0,0.2,0,0.2
		c0,0.1,0,0.1,0.1,0.2l0,0.1L26,5.3c0-0.1,0-0.1,0-0.1c0-0.1,0-0.1,0-0.2l0-0.2c0-0.1,0-0.3-0.1-0.3c-0.1-0.1-0.2-0.1-0.4-0.1
		l-0.7-0.1l-0.1,0.9L23.9,5l0.4-2.3l1.7,0.3C26.2,3,26.4,3,26.5,3.1L26.5,3.1z"/>
	<path id="XMLID_56_" class="st3" d="M28,5c0,0.1,0,0.2,0.1,0.3c0.1,0.1,0.3,0.2,0.5,0.3c0.2,0,0.3,0.1,0.4,0.1
		c0.2,0,0.3-0.1,0.4-0.2c0-0.1,0-0.1-0.1-0.2c-0.1-0.1-0.2-0.1-0.4-0.2l-0.3-0.2c-0.3-0.2-0.5-0.3-0.7-0.4c-0.2-0.2-0.3-0.4-0.2-0.6
		c0.1-0.2,0.2-0.3,0.5-0.4c0.3-0.1,0.6-0.1,1,0.1c0.3,0.1,0.6,0.2,0.8,0.4c0.2,0.2,0.3,0.4,0.2,0.7l-0.7-0.2c0-0.1,0-0.3-0.2-0.4
		C29.2,4.1,29.1,4,29,4c-0.2-0.1-0.3-0.1-0.4,0c-0.1,0-0.2,0.1-0.2,0.2c0,0.1,0,0.2,0.1,0.2c0.1,0,0.2,0.1,0.4,0.2l0.5,0.3
		c0.2,0.1,0.4,0.2,0.5,0.3C30,5.3,30.1,5.5,30,5.7C30,5.9,29.8,6,29.5,6.1c-0.3,0.1-0.6,0-1-0.1c-0.4-0.1-0.7-0.3-1-0.5
		c-0.2-0.2-0.3-0.4-0.2-0.7L28,5L28,5z"/>
	<path id="XMLID_53_" class="st3" d="M33.7,7.5c0.2,0,0.4-0.2,0.5-0.4c0.1-0.2,0.1-0.5,0.1-0.7c-0.1-0.2-0.2-0.4-0.5-0.5
		c-0.3-0.1-0.5-0.2-0.7-0.1c-0.2,0-0.4,0.2-0.5,0.4c-0.1,0.2-0.1,0.5-0.1,0.7c0.1,0.2,0.2,0.4,0.5,0.5C33.3,7.6,33.5,7.6,33.7,7.5
		L33.7,7.5z M33.9,8.1c-0.3,0-0.7-0.1-1.1-0.3c-0.4-0.2-0.7-0.5-0.9-0.8c-0.2-0.4-0.2-0.7,0-1.1c0.2-0.4,0.5-0.6,0.9-0.6
		c0.3,0,0.7,0.1,1.1,0.3c0.4,0.2,0.7,0.5,0.9,0.8c0.2,0.4,0.2,0.7,0,1.1C34.7,7.8,34.3,8,33.9,8.1L33.9,8.1z"/>
	<polygon id="XMLID_52_" class="st3" points="36.1,6.9 38.1,8.3 37.8,8.6 36.4,7.6 36.1,8.1 37.4,8.9 37.1,9.3 35.9,8.4 35.3,9.2 
		34.7,8.8 36.1,6.9 	"/>
	<polygon id="XMLID_51_" class="st3" points="39.7,9.7 41.4,11.4 41.1,11.7 39.9,10.5 39.5,10.9 40.6,11.9 40.3,12.2 39.2,11.2 
		38.5,11.9 38,11.4 39.7,9.7 	"/>
	<path id="XMLID_48_" class="st3" d="M42.1,12.8l-0.5,0.4l0.5,0.6c0.1,0.1,0.2,0.2,0.2,0.3c0.1,0.1,0.2,0.1,0.3,0
		c0.1-0.1,0.2-0.2,0.1-0.3c0-0.1-0.1-0.2-0.2-0.3L42.1,12.8L42.1,12.8z M43.3,13.8c0,0.1,0.1,0.2,0.1,0.4c0,0.1,0,0.2-0.1,0.3
		c0,0.1-0.1,0.1-0.2,0.2c-0.1,0.1-0.2,0.1-0.3,0.1c-0.1,0-0.3-0.1-0.4-0.2c0.1,0.2,0.1,0.3,0.1,0.4c0,0.1-0.1,0.2-0.2,0.3L42,15.4
		c-0.1,0.1-0.1,0.1-0.2,0.1c0,0.1,0,0.1,0,0.2l0,0l-0.5-0.6c0,0,0.1-0.1,0.1-0.1c0-0.1,0.1-0.1,0.1-0.1l0.2-0.1
		c0.1-0.1,0.2-0.2,0.2-0.3c0-0.1-0.1-0.2-0.2-0.4l-0.4-0.6L40.5,14l-0.4-0.6L42,12l1,1.3C43.1,13.6,43.2,13.7,43.3,13.8L43.3,13.8z"
		/>
	<polygon id="XMLID_47_" class="st3" points="45.1,17.4 44.2,15.8 43.7,16.1 44.6,17.5 44.2,17.7 43.4,16.3 42.8,16.6 43.8,18.3 
		43.4,18.5 42.1,16.2 44.2,15 45.4,17.2 45.1,17.4 	"/>
	<polygon id="XMLID_46_" class="st3" points="46.4,20.6 45.7,18.9 45.2,19.1 45.9,20.6 45.5,20.8 44.9,19.2 44.3,19.5 45,21.2 
		44.6,21.4 43.6,19 45.8,18.1 46.8,20.4 46.4,20.6 	"/>
	<path id="XMLID_43_" class="st3" d="M46.9,22.1l-1.5,0.4l0.2,0.6c0.1,0.3,0.3,0.5,0.5,0.6c0.1,0,0.3,0,0.5,0
		c0.2-0.1,0.4-0.2,0.5-0.3c0.1-0.1,0.1-0.4,0-0.7L46.9,22.1L46.9,22.1z M47.6,23.3c0,0.2,0,0.5-0.2,0.6c-0.1,0.1-0.2,0.3-0.3,0.3
		c-0.1,0.1-0.2,0.1-0.4,0.2c-0.3,0.1-0.6,0.1-0.8-0.1c-0.3-0.2-0.6-0.5-0.7-1l-0.4-1.4l2.3-0.6l0.4,1.4C47.5,23,47.6,23.2,47.6,23.3
		L47.6,23.3z"/>
	<path id="XMLID_40_" class="st3" d="M46.4,27.4c0.2,0.1,0.4,0.2,0.6,0.2c0.3,0,0.5-0.1,0.6-0.3c0.1-0.2,0.2-0.4,0.1-0.7
		c0-0.3-0.1-0.5-0.3-0.6c-0.2-0.2-0.4-0.2-0.6-0.2c-0.3,0-0.5,0.1-0.6,0.3c-0.1,0.2-0.2,0.4-0.1,0.7C46.2,27,46.3,27.3,46.4,27.4
		L46.4,27.4z M46.1,27.9c-0.2-0.2-0.4-0.6-0.4-1.1c-0.1-0.5,0-0.9,0.1-1.1c0.2-0.4,0.5-0.6,0.9-0.6c0.4-0.1,0.8,0.1,1,0.4
		c0.2,0.2,0.4,0.6,0.4,1.1c0.1,0.5,0,0.9-0.1,1.1c-0.2,0.4-0.5,0.6-0.9,0.6C46.7,28.3,46.4,28.2,46.1,27.9L46.1,27.9z"/>
	<path id="XMLID_39_" class="st3" d="M48.2,31.4l-0.1,1l-2.4-0.1l0-0.7l1.6,0.1c0,0,0.1,0,0.2,0c0.1,0,0.1,0,0.2,0l-2-0.8l0-0.7
		l2-0.5c0,0-0.1,0-0.2,0c-0.1,0-0.1,0-0.2,0l-1.6-0.1l0-0.7l2.4,0.1l-0.1,1l-1.9,0.5L48.2,31.4L48.2,31.4z"/>
	<path id="XMLID_38_" class="st3" d="M43,34.3c0-0.2-1.2-1.6-2-1.8c-0.1,0,0,0.1-0.1,0.6c-0.1,0.4,0.3,0.4,0.3,1.8
		c0,1-0.9,2.2-0.9,2.2l-0.8-2.6c0,0-0.1,0.7-0.8,1.6c-0.4,0.5-0.1-1.9,0.1-2.8c0.3-1.2-0.7-2-0.7-2L35.7,30c0,0,1.5,0.1,4.2,1.1
		C43.2,32.3,43,34.5,43,34.3L43,34.3z"/>
	<path id="XMLID_37_" class="st3" d="M35.7,30l-1.7,0.3c0,0-0.3,0.2,0,0.9c0.2,0.4,0,3.6,0,3.6l-1-3.2l-1.8,2.2c0,0,0.9-2.3,0.9-2.4
		c0.3-0.6-0.1-1.3-0.1-1.3l-2.1-0.6c0,0,0.7,0,2.6,0.2C34.4,29.8,35.7,30,35.7,30L35.7,30z"/>
	<path id="XMLID_36_" class="st0" d="M25.4,28.9l0.7,0.9c0,0,0.6,0.3,0.4,0.6c-0.6,0.7-0.4,2.2-0.4,2.2l1.1-1.3l1.7,2.4
		c0,0-0.4-2-0.6-2.7c0-0.2-0.2-0.3-0.2-0.5c0-0.4,0.2-0.6,0.2-0.6l1.6-0.5c0,0-1.1,0-2.7-0.1C26,29.2,25.4,28.9,25.4,28.9L25.4,28.9
		z"/>
	<path id="XMLID_35_" class="st3" d="M39.4,30.8c-0.1-0.3,0.1-0.5,0.3-0.5c0.2,0,0.4,0.2,0.5,0.4c0.1,0.3-0.1,0.5-0.3,0.5
		C39.6,31.3,39.4,31.1,39.4,30.8L39.4,30.8z"/>
	<path id="XMLID_34_" class="st3" d="M32.6,29.5c0-0.2,0.1-0.3,0.3-0.3c0.2,0,0.4,0.1,0.4,0.3c0,0.2-0.1,0.3-0.3,0.3
		C32.8,29.8,32.6,29.7,32.6,29.5L32.6,29.5z"/>
	<path id="XMLID_33_" class="st3" d="M27.9,36.3c-0.9-0.2-1.3-0.1-1.3-0.2c0.5-0.4,1.3-0.5,1.6-0.6L27.9,36.3L27.9,36.3z"/>
	<path id="XMLID_32_" class="st2" d="M26.2,37.8c1,0,1.4,0.8,1.4,1.1c0,0.1-0.1,0.7-0.7,0.7c-1,0-1.4-1-1.4-1.2
		C25.4,38.2,25.5,37.8,26.2,37.8L26.2,37.8z"/>
	<path id="XMLID_31_" class="st3" d="M29.8,34.1c1.1,0,1.9,1.1,1.9,1.2c0,0.1,0,0.1-0.1,0.2c-0.1,0-0.1,0-0.3,0
		c-1.2,0-2.1-1.1-2.1-1.2C29.3,34.2,29.4,34.1,29.8,34.1L29.8,34.1z"/>
	<path id="XMLID_30_" class="st3" d="M28.7,36.4l0-0.8c0.7,0,2.2,0.2,2.9,0.4c0.2-1.1,2.1-1.5,3.5-1.5c0.2,0,0.7,0,1.1,0.1
		c-1.3,0.4-2.4,0.8-2.2,1.7c0.1,0.3,0.3,1.4,0.4,1.5c0,0,2.1,1.6,1.9,3.9c-0.2,2.2-0.7,4.7-0.8,4.8c0,0-1.3-4.8-1.3-4.8
		c-0.1,0,0.1,4-2.1,7.1c0.3-0.6,0.8-6.8,0.4-9.4c-0.1-0.9-0.6-1.6-0.7-1.8C31,37.1,29.6,36.5,28.7,36.4L28.7,36.4z"/>
	<path id="XMLID_29_" class="st3" d="M34.4,37.7l-0.2-0.6c0.5-0.9,1.6-1.2,3-1.2c0.2,0,0.5,0,0.8-0.1c-0.2-0.2-1-0.8-1-1.1
		c0-0.1,0.1,0,0.1-0.1h0.4c0.7,0,1.5,1.2,1.6,1.3c1.1-0.1,3.3-0.6,4-1.3c0,0.1-0.8,1.8-3,2.9c0.3,1.6,0.4,3.9,0,4.3
		c0,0.1-0.9-2.4-1.2-2.1c-0.1,1-0.5,4.3-1,4.6l-0.2-4.1c-0.2-0.6-0.3-1.3-0.3-1.8c0-0.1,0.1-0.6,0.2-0.9c-0.4-0.1-1.2-0.1-1.4-0.1
		C35.9,37.3,34.6,37.4,34.4,37.7L34.4,37.7z"/>
	<path id="XMLID_28_" class="st2" d="M27.8,35.9c0.1-0.7,0.4-1.2,1.1-1.8c-0.4,0.9-0.3,2.9,0.9,5.2c0.3,0.5,0.5,2,0.5,2.1
		c0,0,0.7,1.2,0.4,2.5c-0.1,0.3-1,1.4-1.2,1.8c-1.5,2.1,1.1,1.4-0.9,4.7c-0.2-2-1.5-3-1.2-3.8c0.2-0.6,0.9-1.8,0.9-1.8
		c-3.7,1.4,0.3,5.5-2.9,6.4c1.2-1-0.9-4.4-0.2-5.5c0.6-1.1,2.6-2.1,2.6-3.3c0-1.8-2.2-1-5.1-2.2c-0.1,0-1.6-1-1.9-1.2
		c0.4,0.1,0.9,0.3,1.5,0.5c0.9,0.2,2.1,0.5,3.1,0.5c2.4,0,2.9-0.9,2.9-1.7C28.3,38.3,27.8,36.6,27.8,35.9L27.8,35.9z"/>
	<path id="XMLID_27_" class="st2" d="M18.6,37.8c1.2,0.5,4.5,2.3,4.5,2.3s-2.4,0.2-2.8,0.2c-0.4,0,0.2,0.5,0.3,1.6
		c0.2,1.1,0.6,2.1,1,2.6c0.3,0.5,1.4,1.8,1.7,3.3c0.3,1.6,0,3.8,0,3.8s-1.9-4.6-2.2-5.2c-0.3-0.5-2.2-3.3-2.2-3.3s-1.5,0.1-1.9,1
		c-0.4,0.9,1.3,1.2,0.9,4.3c-0.1,1,0.1,2.9,0.1,2.9s-1.2-2.7-1.4-3.8c-0.2-1.1-1.5-3.8-0.9-4.4c0.6-0.6,2.4-1.2,2.3-1.9
		c-0.1-0.7-2.9-8.4-2.9-8.4S17.4,37.3,18.6,37.8L18.6,37.8z"/>
	<path id="XMLID_26_" class="st2" d="M20.2,36.2c0.2,0.9-0.5,1.6-0.8,1.6c-0.1,0-0.7,0-0.8-0.6c-0.2-1,0.7-1.6,0.9-1.6
		C19.6,35.6,20.1,35.5,20.2,36.2L20.2,36.2z"/>
	<path id="XMLID_25_" class="st0" d="M25.6,29c0-0.1-0.1-0.4,0.1-0.8c0.2-0.4,0,0.6,0.1,1.2c0.1,0.6,0.3,1.4,0.3,1.4l0.4-2
		c0,0,0.1,0.7,0.3,1.3c0.1,0.3,0-1.3-0.1-1.8c0-0.8-0.1-0.9-0.1-0.9l0.8-0.8c0,0-0.5,0.2-1,0.5C24.8,28.3,25.6,29.2,25.6,29L25.6,29
		z"/>
	<path id="XMLID_24_" class="st0" d="M27.3,26.7c0,0,0.7-0.3,1.6-0.4c1-0.1,0.9-0.2,1.3-0.2c0.3,0-0.4,0.3-0.4,0.3l-0.4,0.1
		c0,0-0.2,0.3-0.1,0.4c0.1,0.1,0.1,0.4,0.1,0.7c0,0.3,0,0.8,0,0.8l-0.5-1.1c0,0,0,0,0,0.3c0,0.3,0,0.4,0,0.4l-0.3,0.6l-0.1-0.7
		l0.1-0.5l-0.1-0.5L27.3,26.7L27.3,26.7z"/>
	<path id="XMLID_23_" class="st1" d="M32.9,26.2c0,0,0.2,0,0.9,0.2c0.8,0.2,1.5,0.4,1.5,0.4l-0.8,0.1c0,0-0.1,0.1-0.1,0.2
		c0.1,0.1,0.2,0.5,0.1,0.7c0,0.2-0.1,0.5-0.1,0.5L34,27.4l-0.3,0.9l-0.1-1.1l0.1-0.5L32.9,26.2L32.9,26.2z"/>
	<path id="XMLID_22_" class="st1" d="M32.9,26.2c0,0-1-0.1-1.4-0.1c-0.6,0-1.2,0-1.2,0l0.8,0.3l0,0.2l0.1,0.3c0,0-0.1,0.2-0.2,0.3
		c0,0.1,0,0.7,0,0.7l0.1,0.2l0.3-0.9l0.2,0.9c0,0,0.5-1,0.4-1.2c-0.1-0.1-0.2-0.3-0.2-0.3l0-0.1L32.9,26.2L32.9,26.2z"/>
	<path id="XMLID_21_" class="st0" d="M27,29.1c0-0.2,0.1-0.3,0.2-0.3c0.1,0,0.3,0.1,0.3,0.3c0,0.2-0.1,0.3-0.2,0.3
		C27.2,29.4,27,29.3,27,29.1L27,29.1z"/>
	<path id="XMLID_20_" class="st0" d="M25.8,27.2c0-0.1,0.1-0.2,0.3-0.2c0.1,0,0.2,0.1,0.2,0.3c0,0.1-0.1,0.2-0.3,0.2
		C25.8,27.5,25.8,27.4,25.8,27.2L25.8,27.2z"/>
	<path id="XMLID_19_" class="st1" d="M31.2,26c0-0.1,0.1-0.2,0.2-0.2c0.1,0,0.2,0.1,0.1,0.2c0,0.1-0.1,0.2-0.2,0.2
		C31.3,26.2,31.2,26.1,31.2,26L31.2,26z"/>
	<path id="XMLID_18_" class="st0" d="M28.6,26.1c0-0.1,0.1-0.2,0.2-0.2c0.1,0,0.1,0.1,0.1,0.2c0,0.1-0.1,0.2-0.2,0.2
		C28.6,26.3,28.6,26.2,28.6,26.1L28.6,26.1z"/>
	<path id="XMLID_17_" class="st1" d="M36,26.8c0-0.1,0.1-0.1,0.1-0.1c0.1,0,0.1,0.1,0.1,0.1c0,0.1-0.1,0.1-0.1,0.1
		C36,27,36,26.9,36,26.8L36,26.8z"/>
	<path id="XMLID_16_" class="st1" d="M34,26.4c0-0.1,0.1-0.1,0.1-0.1c0.1,0,0.1,0.1,0.1,0.2c0,0.1-0.1,0.1-0.1,0.1
		C34,26.5,34,26.4,34,26.4L34,26.4z"/>
	<path id="XMLID_15_" class="st1" d="M35.2,26.7c0,0,0.2,0.1,0.9,0.3c0.4,0.1,0.8,0.3,0.8,0.3l-0.5-0.1c0,0-0.1,0.1-0.1,0.3
		c0,0.1,0.1,0.4,0.1,0.6c0,0.2,0,0.5,0,0.5L36,27.9l-0.4,0.6l0.1-0.9l0.1-0.4L35.2,26.7L35.2,26.7z"/>
	<path id="XMLID_14_" class="st1" d="M36.8,27.3c0,0,0.4,0.2,1,0.4c0.6,0.3,0.9,0.4,0.9,0.4L38,28c0,0-0.1,0.2-0.1,0.3
		c0,0.1,0,0.3-0.1,0.5c-0.1,0.2-0.1,0.5-0.1,0.5l-0.1-0.8L37,29.1l0.3-0.9l0.1-0.3L36.8,27.3L36.8,27.3z"/>
	<path id="XMLID_13_" class="st1" d="M38.7,28.2c0,0,0.4,0.2,0.9,0.5c0.3,0.2,0.7,0.5,0.7,0.5l-0.6-0.1c0,0-0.1,0-0.1,0.1
		c0,0.1,0,0.2-0.1,0.4c-0.1,0.1-0.2,0.4-0.2,0.4l0-0.7l-0.4,0.5L39,29l0.1-0.2L38.7,28.2L38.7,28.2z"/>
	<path id="XMLID_12_" class="st1" d="M40.2,29.2c0,0,0.2,0.1,0.6,0.4c0.2,0.1,0.5,0.5,0.5,0.5l-0.4-0.2c0,0-0.1,0-0.1,0.1
		c0,0.1,0,0.2-0.1,0.3c-0.1,0.1-0.1,0.4-0.1,0.4l0-0.6l-0.3,0.3l0.1-0.5l0.1-0.2L40.2,29.2L40.2,29.2z"/>
	<path id="XMLID_11_" class="st1" d="M37.7,27.6c0-0.1,0.1-0.1,0.1-0.1c0.1,0,0.1,0.1,0.1,0.2c0,0.1-0.1,0.1-0.1,0.1
		C37.7,27.8,37.6,27.7,37.7,27.6L37.7,27.6z"/>
	<path id="XMLID_10_" class="st1" d="M39.4,28.6c0-0.1,0.1-0.1,0.1-0.1c0,0,0.1,0.1,0.1,0.1c0,0.1-0.1,0.1-0.1,0.1
		C39.4,28.7,39.4,28.6,39.4,28.6L39.4,28.6z"/>
	<path id="XMLID_9_" class="st1" d="M40.7,29.6c0-0.1,0.1-0.1,0.1-0.1c0,0,0.1,0.1,0.1,0.1c0,0.1-0.1,0.1-0.1,0.1
		C40.7,29.7,40.7,29.6,40.7,29.6L40.7,29.6z"/>
	<path id="XMLID_8_" class="st1" d="M41.1,30.1c0,0,0.2,0.1,0.5,0.4C41.8,30.6,42,31,42,31l-0.3-0.2c0,0-0.1,0-0.1,0
		c0,0.1,0,0.2-0.1,0.3c-0.1,0.1-0.1,0.3-0.1,0.3l0-0.6l-0.3,0.4l0.2-0.6l0.1-0.2L41.1,30.1L41.1,30.1z"/>
	<path id="XMLID_7_" class="st1" d="M41.6,30.4C41.6,30.4,41.7,30.3,41.6,30.4c0.1-0.1,0.2,0,0.1,0c0,0-0.1,0.1-0.1,0.1
		C41.6,30.5,41.6,30.5,41.6,30.4L41.6,30.4z"/>
	<path id="XMLID_3_" class="st3" d="M2.5,8.9c0.1-0.6,0.4-1.1,0.7-1.3c0.2-0.2,0.4-0.3,0.6-0.3c0.2,0,0.4,0.1,0.5,0.2
		c0.1,0.1,0.2,0.3,0.2,0.5c0,0.2,0,0.5-0.1,1c-0.2,1-0.2,1.6-0.1,2.1c0.1,0.4,0.4,0.9,0.8,1.4l0.6,0.7l3.4-2.9l-0.9-1l-2.2,1.8
		c-0.1-0.2-0.2-0.4-0.3-0.6c0-0.2,0-0.6,0.1-1.2c0.1-0.8,0.2-1.4,0.2-1.8C6,7,5.9,6.7,5.6,6.3C5.2,5.9,4.7,5.6,4.2,5.6
		c-0.6,0-1.1,0.2-1.6,0.6C2.2,6.6,1.8,7.1,1.5,7.7v0L2.5,8.9L2.5,8.9z M7.3,4C7.2,4.8,7.4,5.6,8,6.6c0.3,0.6,0.7,1.1,1.1,1.5
		c0.4,0.4,0.9,0.7,1.4,0.8c0.5,0.1,1,0,1.5-0.3c0.7-0.4,1-1,1.1-1.7c0.1-0.8-0.1-1.7-0.7-2.6c-0.6-1.1-1.3-1.8-2-2.1
		C9.8,1.8,9.1,1.8,8.4,2.2C7.7,2.6,7.4,3.1,7.3,4L7.3,4z M9.9,3.5c0.3,0.3,0.7,0.8,1.1,1.5c0.4,0.7,0.6,1.2,0.7,1.6
		c0.1,0.4,0,0.7-0.2,0.8c-0.2,0.1-0.5,0.1-0.8-0.2C10.2,7,9.9,6.5,9.5,5.8C9.1,5.1,8.9,4.5,8.8,4.1c-0.1-0.4,0-0.7,0.3-0.8
		C9.3,3.2,9.6,3.3,9.9,3.5L9.9,3.5z"/>
</g>
<g id="XMLID_114_">
	<g>
		<path d="M65.2,22.8h-3.4v-1.2c0-0.8,0-1.2-0.1-1.4c-0.1-0.2-0.2-0.3-0.5-0.3c-0.2,0-0.4,0.1-0.4,0.2c-0.1,0.2-0.1,0.6-0.1,1.3v6.3
			c0,0.6,0,1,0.1,1.2c0.1,0.2,0.2,0.3,0.5,0.3c0.2,0,0.4-0.1,0.5-0.3c0.1-0.2,0.1-0.6,0.1-1.2v-1.6h-0.7v-2h4v7.1H63l-0.3-0.9
			c-0.2,0.4-0.5,0.7-0.9,0.9c-0.4,0.2-0.8,0.3-1.3,0.3c-0.6,0-1.1-0.1-1.6-0.4c-0.5-0.3-0.9-0.6-1.1-1c-0.3-0.4-0.4-0.8-0.5-1.3
			c-0.1-0.5-0.1-1.1-0.1-2v-3.9c0-1.3,0.1-2.2,0.2-2.7c0.1-0.6,0.5-1.1,1.2-1.6c0.6-0.5,1.5-0.7,2.5-0.7c1,0,1.8,0.2,2.5,0.6
			c0.7,0.4,1.1,0.9,1.3,1.5c0.2,0.6,0.3,1.4,0.3,2.5V22.8z"/>
		<path d="M74.3,25.7c0,1.3,0,2.3-0.1,2.8C74.2,29,74,29.5,73.6,30c-0.3,0.5-0.8,0.8-1.3,1c-0.6,0.2-1.2,0.4-2,0.4
			c-0.7,0-1.3-0.1-1.9-0.3c-0.6-0.2-1-0.6-1.4-1c-0.3-0.5-0.5-1-0.6-1.5c-0.1-0.5-0.1-1.5-0.1-2.8v-2.3c0-1.3,0-2.3,0.1-2.8
			c0.1-0.6,0.3-1.1,0.6-1.5c0.3-0.5,0.8-0.8,1.3-1c0.6-0.2,1.2-0.4,2-0.4c0.7,0,1.3,0.1,1.9,0.3c0.6,0.2,1,0.6,1.4,1
			c0.3,0.5,0.5,1,0.6,1.5c0.1,0.5,0.1,1.5,0.1,2.8V25.7z M70.9,21.3c0-0.6,0-1-0.1-1.2c-0.1-0.2-0.2-0.3-0.4-0.3
			c-0.2,0-0.3,0.1-0.4,0.2c-0.1,0.1-0.1,0.5-0.1,1.2v6.2c0,0.8,0,1.2,0.1,1.4c0.1,0.2,0.2,0.3,0.4,0.3c0.2,0,0.4-0.1,0.4-0.3
			c0.1-0.2,0.1-0.7,0.1-1.5V21.3z"/>
		<path d="M83.8,17.9L82,31.1h-5.2l-2-13.2h3.6c0.4,3.6,0.7,6.7,0.9,9.2c0.2-2.5,0.4-4.8,0.6-6.8l0.2-2.5H83.8z"/>
		<path d="M84.3,17.9H90v2.6h-2.3v2.5h2.1v2.5h-2.1v2.9h2.5v2.6h-5.9V17.9z"/>
		<path d="M91.3,17.9h2.4c1.6,0,2.7,0.1,3.3,0.2c0.6,0.1,1,0.4,1.4,1c0.4,0.5,0.5,1.3,0.5,2.5c0,1-0.1,1.7-0.4,2.1
			c-0.3,0.4-0.8,0.6-1.5,0.6c0.7,0.2,1.1,0.4,1.4,0.7c0.2,0.3,0.4,0.5,0.4,0.8c0.1,0.2,0.1,0.9,0.1,1.9v3.5h-3.2v-4.4
			c0-0.7-0.1-1.1-0.2-1.3c-0.1-0.2-0.4-0.3-0.9-0.3v5.9h-3.4V17.9z M94.7,20.2v2.9c0.4,0,0.7-0.1,0.8-0.2c0.2-0.1,0.2-0.4,0.2-1
			v-0.7c0-0.4-0.1-0.7-0.2-0.8C95.3,20.3,95.1,20.2,94.7,20.2z"/>
		<path d="M107.9,17.9v13.2h-3l-1.8-6v6h-2.9V17.9h2.9l1.9,5.9v-5.9H107.9z"/>
		<path d="M119.8,17.9v13.2h-3l0-8.9l-1.2,8.9h-2.1l-1.3-8.7l0,8.7h-3V17.9h4.4c0.1,0.8,0.3,1.7,0.4,2.8l0.5,3.4l0.8-6.2H119.8z"/>
		<path d="M121.2,17.9h5.7v2.6h-2.3v2.5h2.1v2.5h-2.1v2.9h2.5v2.6h-5.9V17.9z"/>
		<path d="M135.8,17.9v13.2h-3l-1.8-6v6h-2.9V17.9h2.9l1.9,5.9v-5.9H135.8z"/>
		<path d="M144.1,17.9v2.6h-2v10.5h-3.4V20.6h-2v-2.6H144.1z"/>
		<path class="st5" d="M144.8,17.9h2.6c1.7,0,2.8,0.1,3.4,0.2c0.6,0.2,1,0.4,1.3,0.7c0.3,0.3,0.5,0.7,0.6,1.2
			c0.1,0.4,0.1,1.3,0.1,2.5v4.6c0,1.2-0.1,2-0.2,2.4c-0.1,0.4-0.3,0.7-0.6,0.9c-0.3,0.2-0.6,0.4-1,0.5c-0.4,0.1-1,0.1-1.8,0.1h-4.3
			V17.9z M148.3,20.2v8.7c0.5,0,0.8-0.1,0.9-0.3c0.1-0.2,0.2-0.7,0.2-1.6v-5.1c0-0.6,0-1-0.1-1.1c0-0.2-0.1-0.3-0.3-0.4
			C148.9,20.2,148.6,20.2,148.3,20.2z"/>
		<path class="st5" d="M157.5,17.9v13.2H154V17.9H157.5z"/>
		<path class="st5" d="M158.9,17.9h2.4c1.6,0,2.7,0.1,3.3,0.2c0.6,0.1,1,0.4,1.4,1c0.4,0.5,0.5,1.3,0.5,2.5c0,1-0.1,1.7-0.4,2.1
			c-0.3,0.4-0.8,0.6-1.5,0.6c0.7,0.2,1.1,0.4,1.4,0.7c0.2,0.3,0.4,0.5,0.4,0.8c0.1,0.2,0.1,0.9,0.1,1.9v3.5h-3.2v-4.4
			c0-0.7-0.1-1.1-0.2-1.3c-0.1-0.2-0.4-0.3-0.9-0.3v5.9h-3.4V17.9z M162.3,20.2v2.9c0.4,0,0.7-0.1,0.8-0.2c0.2-0.1,0.2-0.4,0.2-1
			v-0.7c0-0.4-0.1-0.7-0.2-0.8C162.9,20.3,162.7,20.2,162.3,20.2z"/>
		<path class="st5" d="M167.8,17.9h5.7v2.6h-2.3v2.5h2.1v2.5h-2.1v2.9h2.5v2.6h-5.9V17.9z"/>
		<path class="st5" d="M182.8,23.7h-3.4v-2.3c0-0.7,0-1.1-0.1-1.2c-0.1-0.2-0.2-0.2-0.5-0.2c-0.3,0-0.5,0.1-0.5,0.3
			c-0.1,0.2-0.1,0.6-0.1,1.3v6.1c0,0.6,0,1.1,0.1,1.3c0.1,0.2,0.2,0.3,0.5,0.3c0.3,0,0.4-0.1,0.5-0.3c0.1-0.2,0.1-0.7,0.1-1.4v-1.7
			h3.4v0.5c0,1.4-0.1,2.3-0.3,2.9c-0.2,0.6-0.6,1.1-1.3,1.5c-0.7,0.4-1.5,0.6-2.4,0.6c-1,0-1.8-0.2-2.5-0.5s-1.1-0.9-1.3-1.5
			c-0.2-0.6-0.3-1.6-0.3-2.9v-3.8c0-0.9,0-1.7,0.1-2.1c0.1-0.5,0.3-0.9,0.6-1.4c0.3-0.4,0.8-0.8,1.3-1c0.6-0.3,1.2-0.4,2-0.4
			c1,0,1.8,0.2,2.5,0.6c0.7,0.4,1.1,0.9,1.3,1.5c0.2,0.6,0.3,1.5,0.3,2.7V23.7z"/>
		<path class="st5" d="M190.9,17.9v2.6h-2v10.5h-3.4V20.6h-2v-2.6H190.9z"/>
		<path class="st5" d="M199.5,25.7c0,1.3,0,2.3-0.1,2.8c-0.1,0.6-0.3,1.1-0.6,1.5c-0.3,0.5-0.8,0.8-1.3,1c-0.6,0.2-1.2,0.4-2,0.4
			c-0.7,0-1.3-0.1-1.9-0.3c-0.6-0.2-1-0.6-1.4-1c-0.3-0.5-0.5-1-0.6-1.5c-0.1-0.5-0.1-1.5-0.1-2.8v-2.3c0-1.3,0-2.3,0.1-2.8
			c0.1-0.6,0.3-1.1,0.6-1.5c0.3-0.5,0.8-0.8,1.3-1c0.6-0.2,1.2-0.4,2-0.4c0.7,0,1.3,0.1,1.9,0.3c0.6,0.2,1,0.6,1.4,1
			c0.3,0.5,0.5,1,0.6,1.5c0.1,0.5,0.1,1.5,0.1,2.8V25.7z M196.1,21.3c0-0.6,0-1-0.1-1.2c-0.1-0.2-0.2-0.3-0.4-0.3
			c-0.2,0-0.3,0.1-0.4,0.2c-0.1,0.1-0.1,0.5-0.1,1.2v6.2c0,0.8,0,1.2,0.1,1.4c0.1,0.2,0.2,0.3,0.4,0.3c0.2,0,0.4-0.1,0.4-0.3
			c0.1-0.2,0.1-0.7,0.1-1.5V21.3z"/>
		<path class="st5" d="M200.8,17.9h2.4c1.6,0,2.7,0.1,3.3,0.2c0.6,0.1,1,0.4,1.4,1c0.4,0.5,0.5,1.3,0.5,2.5c0,1-0.1,1.7-0.4,2.1
			c-0.3,0.4-0.8,0.6-1.5,0.6c0.7,0.2,1.1,0.4,1.4,0.7c0.2,0.3,0.4,0.5,0.4,0.8c0.1,0.2,0.1,0.9,0.1,1.9v3.5h-3.2v-4.4
			c0-0.7-0.1-1.1-0.2-1.3c-0.1-0.2-0.4-0.3-0.9-0.3v5.9h-3.4V17.9z M204.2,20.2v2.9c0.4,0,0.7-0.1,0.8-0.2c0.2-0.1,0.2-0.4,0.2-1
			v-0.7c0-0.4-0.1-0.7-0.2-0.8C204.9,20.3,204.6,20.2,204.2,20.2z"/>
		<path class="st5" d="M217,17.9l-2.5,8.4v4.8h-3.2v-4.8l-2.4-8.4h3.1c0.5,2.6,0.8,4.3,0.8,5.2c0.2-1.4,0.5-3.1,1-5.2H217z"/>
	</g>
	<g>
		<path d="M161.5,42.3c0-0.8,0.2-1.4,0.7-1.8c0.4-0.3,0.9-0.5,1.4-0.5c0.6,0,1.1,0.2,1.5,0.6c0.4,0.4,0.6,1,0.6,1.7
			c0,0.6-0.1,1-0.3,1.4c-0.2,0.3-0.4,0.6-0.8,0.8c-0.3,0.2-0.7,0.3-1.1,0.3c-0.6,0-1.1-0.2-1.5-0.6C161.7,43.6,161.5,43,161.5,42.3z
			 M162.3,42.3c0,0.6,0.1,1,0.4,1.3c0.3,0.3,0.6,0.4,0.9,0.4c0.4,0,0.7-0.1,0.9-0.4c0.3-0.3,0.4-0.7,0.4-1.3c0-0.6-0.1-1-0.4-1.3
			c-0.3-0.3-0.6-0.4-0.9-0.4c-0.4,0-0.7,0.1-0.9,0.4C162.4,41.3,162.3,41.7,162.3,42.3z"/>
		<path d="M166.6,44.5v-3.9h-0.7V40h0.7v-0.5c0-0.3,0-0.5,0.1-0.7c0.1-0.2,0.2-0.4,0.4-0.5c0.2-0.1,0.4-0.2,0.8-0.2
			c0.2,0,0.5,0,0.7,0.1l-0.1,0.7c-0.2,0-0.3,0-0.4,0c-0.2,0-0.4,0-0.5,0.1c-0.1,0.1-0.1,0.3-0.1,0.6V40h0.9v0.6h-0.9v3.9H166.6z"/>
		<path d="M170.7,42.5l0.8-0.1c0,0.3,0.1,0.6,0.3,0.8c0.1,0.2,0.3,0.4,0.6,0.5c0.3,0.1,0.6,0.2,0.9,0.2c0.3,0,0.6,0,0.8-0.1
			c0.2-0.1,0.4-0.2,0.5-0.4c0.1-0.2,0.2-0.3,0.2-0.5c0-0.2-0.1-0.4-0.2-0.5c-0.1-0.1-0.3-0.3-0.6-0.4c-0.2-0.1-0.5-0.2-1.1-0.3
			c-0.6-0.1-1-0.3-1.2-0.4c-0.3-0.2-0.5-0.3-0.7-0.6c-0.1-0.2-0.2-0.5-0.2-0.8c0-0.3,0.1-0.6,0.3-0.9c0.2-0.3,0.4-0.5,0.8-0.6
			c0.3-0.1,0.7-0.2,1.1-0.2c0.5,0,0.9,0.1,1.2,0.2c0.4,0.1,0.6,0.4,0.8,0.7c0.2,0.3,0.3,0.6,0.3,1l-0.8,0.1c0-0.4-0.2-0.7-0.4-0.9
			c-0.2-0.2-0.6-0.3-1.1-0.3c-0.5,0-0.9,0.1-1.1,0.3c-0.2,0.2-0.3,0.4-0.3,0.7c0,0.2,0.1,0.4,0.2,0.5c0.2,0.1,0.6,0.3,1.2,0.4
			c0.7,0.2,1.1,0.3,1.4,0.4c0.4,0.2,0.6,0.4,0.8,0.6c0.2,0.3,0.3,0.5,0.3,0.9c0,0.3-0.1,0.6-0.3,0.9c-0.2,0.3-0.5,0.5-0.8,0.7
			c-0.4,0.2-0.8,0.2-1.2,0.2c-0.6,0-1-0.1-1.4-0.2c-0.4-0.2-0.7-0.4-0.9-0.7C170.9,43.3,170.8,42.9,170.7,42.5z"/>
		<path d="M176.3,42.3c0-0.8,0.2-1.4,0.7-1.8c0.4-0.3,0.9-0.5,1.4-0.5c0.6,0,1.1,0.2,1.5,0.6c0.4,0.4,0.6,1,0.6,1.7
			c0,0.6-0.1,1-0.3,1.4c-0.2,0.3-0.4,0.6-0.8,0.8c-0.3,0.2-0.7,0.3-1.1,0.3c-0.6,0-1.1-0.2-1.5-0.6C176.5,43.6,176.3,43,176.3,42.3z
			 M177,42.3c0,0.6,0.1,1,0.4,1.3c0.3,0.3,0.6,0.4,0.9,0.4c0.4,0,0.7-0.1,0.9-0.4c0.3-0.3,0.4-0.7,0.4-1.3c0-0.6-0.1-1-0.4-1.3
			c-0.3-0.3-0.6-0.4-0.9-0.4c-0.4,0-0.7,0.1-0.9,0.4C177.2,41.3,177,41.7,177,42.3z"/>
		<path d="M184.1,44.5v-0.7c-0.3,0.5-0.8,0.8-1.4,0.8c-0.3,0-0.5-0.1-0.7-0.2c-0.2-0.1-0.4-0.2-0.5-0.4c-0.1-0.2-0.2-0.3-0.2-0.6
			c0-0.1,0-0.4,0-0.7V40h0.8v2.5c0,0.4,0,0.7,0,0.8c0,0.2,0.1,0.4,0.3,0.5c0.2,0.1,0.3,0.2,0.6,0.2c0.2,0,0.4-0.1,0.6-0.2
			c0.2-0.1,0.3-0.3,0.4-0.5c0.1-0.2,0.1-0.5,0.1-0.9V40h0.8v4.5H184.1z"/>
		<path d="M187.5,43.8l0.1,0.7c-0.2,0-0.4,0.1-0.6,0.1c-0.3,0-0.5,0-0.6-0.1c-0.2-0.1-0.3-0.2-0.3-0.3c-0.1-0.1-0.1-0.4-0.1-0.9
			v-2.6h-0.6V40h0.6v-1.1l0.8-0.5V40h0.8v0.6h-0.8v2.6c0,0.2,0,0.4,0,0.4c0,0.1,0.1,0.1,0.1,0.1c0.1,0,0.1,0.1,0.3,0.1
			C187.3,43.8,187.4,43.8,187.5,43.8z"/>
		<path d="M188.1,44.5v-6.2h0.8v2.2c0.4-0.4,0.8-0.6,1.3-0.6c0.3,0,0.6,0.1,0.9,0.2c0.2,0.1,0.4,0.3,0.5,0.5c0.1,0.2,0.2,0.6,0.2,1
			v2.8H191v-2.8c0-0.4-0.1-0.7-0.2-0.8c-0.2-0.2-0.4-0.3-0.7-0.3c-0.2,0-0.4,0.1-0.6,0.2c-0.2,0.1-0.3,0.3-0.4,0.5
			c-0.1,0.2-0.1,0.5-0.1,0.8v2.5H188.1z"/>
		<path d="M194,44.5l2.4-6.2h0.9l2.5,6.2h-0.9l-0.7-1.9h-2.6l-0.7,1.9H194z M195.8,42h2.1l-0.6-1.7c-0.2-0.5-0.3-0.9-0.4-1.3
			c-0.1,0.4-0.2,0.8-0.3,1.2L195.8,42z"/>
		<path d="M200.4,44.5v-3.9h-0.7V40h0.7v-0.5c0-0.3,0-0.5,0.1-0.7c0.1-0.2,0.2-0.4,0.4-0.5c0.2-0.1,0.4-0.2,0.8-0.2
			c0.2,0,0.5,0,0.7,0.1l-0.1,0.7c-0.2,0-0.3,0-0.4,0c-0.2,0-0.4,0-0.5,0.1c-0.1,0.1-0.1,0.3-0.1,0.6V40h0.9v0.6h-0.9v3.9H200.4z"/>
		<path d="M202.4,44.5V40h0.7v0.7c0.2-0.3,0.3-0.5,0.5-0.6c0.1-0.1,0.3-0.2,0.5-0.2c0.3,0,0.5,0.1,0.8,0.2l-0.3,0.7
			c-0.2-0.1-0.4-0.2-0.6-0.2c-0.2,0-0.3,0-0.4,0.1c-0.1,0.1-0.2,0.2-0.3,0.4c-0.1,0.3-0.1,0.6-0.1,0.9v2.3H202.4z"/>
		<path d="M205.2,39.2v-0.9h0.8v0.9H205.2z M205.2,44.5V40h0.8v4.5H205.2z"/>
		<path d="M209.9,42.9l0.7,0.1c-0.1,0.5-0.3,0.9-0.6,1.2c-0.3,0.3-0.7,0.4-1.2,0.4c-0.6,0-1.1-0.2-1.5-0.6c-0.4-0.4-0.6-1-0.6-1.7
			c0-0.5,0.1-0.9,0.2-1.3c0.2-0.4,0.4-0.6,0.7-0.8c0.3-0.2,0.7-0.3,1.1-0.3c0.5,0,0.9,0.1,1.2,0.4c0.3,0.2,0.5,0.6,0.6,1l-0.7,0.1
			c-0.1-0.3-0.2-0.5-0.4-0.7c-0.2-0.2-0.4-0.2-0.6-0.2c-0.4,0-0.7,0.1-0.9,0.4c-0.2,0.3-0.4,0.7-0.4,1.3c0,0.6,0.1,1,0.3,1.3
			c0.2,0.3,0.5,0.4,0.9,0.4c0.3,0,0.5-0.1,0.7-0.3C209.7,43.5,209.8,43.2,209.9,42.9z"/>
		<path d="M214,43.9c-0.3,0.2-0.6,0.4-0.8,0.5c-0.3,0.1-0.5,0.1-0.8,0.1c-0.5,0-0.9-0.1-1.1-0.4c-0.3-0.2-0.4-0.5-0.4-0.9
			c0-0.2,0-0.4,0.1-0.6c0.1-0.2,0.2-0.3,0.4-0.4c0.2-0.1,0.3-0.2,0.5-0.2c0.1,0,0.4-0.1,0.7-0.1c0.6-0.1,1.1-0.2,1.4-0.3
			c0-0.1,0-0.2,0-0.2c0-0.3-0.1-0.5-0.2-0.7c-0.2-0.2-0.5-0.3-0.9-0.3c-0.4,0-0.6,0.1-0.8,0.2c-0.2,0.1-0.3,0.3-0.4,0.7l-0.7-0.1
			c0.1-0.3,0.2-0.6,0.3-0.8c0.2-0.2,0.4-0.3,0.7-0.5c0.3-0.1,0.6-0.2,1-0.2c0.4,0,0.7,0,0.9,0.1c0.2,0.1,0.4,0.2,0.5,0.3
			c0.1,0.1,0.2,0.3,0.2,0.5c0,0.1,0,0.4,0,0.7v1c0,0.7,0,1.2,0,1.3c0,0.2,0.1,0.4,0.2,0.5h-0.8C214.1,44.3,214.1,44.2,214,43.9z
			 M214,42.3c-0.3,0.1-0.7,0.2-1.2,0.3c-0.3,0-0.5,0.1-0.7,0.2c-0.1,0.1-0.2,0.1-0.3,0.2c-0.1,0.1-0.1,0.2-0.1,0.4
			c0,0.2,0.1,0.4,0.2,0.5c0.2,0.1,0.4,0.2,0.7,0.2c0.3,0,0.6-0.1,0.8-0.2c0.2-0.1,0.4-0.3,0.5-0.5c0.1-0.2,0.1-0.4,0.1-0.8V42.3z"/>
	</g>
	<g id="XMLID_115_">
		<path id="XMLID_119_" d="M222.7,12c0.5,0,1.1,0.1,1.6,0.4c0.5,0.3,0.9,0.7,1.2,1.2c0.3,0.5,0.4,1,0.4,1.6c0,0.5-0.1,1.1-0.4,1.6
			c-0.3,0.5-0.7,0.9-1.2,1.2c-0.5,0.3-1,0.4-1.6,0.4c-0.6,0-1.1-0.1-1.6-0.4c-0.5-0.3-0.9-0.7-1.2-1.2c-0.3-0.5-0.4-1-0.4-1.6
			c0-0.6,0.1-1.1,0.4-1.6c0.3-0.5,0.7-0.9,1.2-1.2C221.6,12.2,222.1,12,222.7,12z M222.7,12.6c-0.4,0-0.9,0.1-1.3,0.3
			c-0.4,0.2-0.8,0.6-1,1c-0.2,0.4-0.4,0.9-0.4,1.3c0,0.5,0.1,0.9,0.4,1.3c0.2,0.4,0.6,0.7,1,1c0.4,0.2,0.9,0.4,1.3,0.4
			c0.5,0,0.9-0.1,1.3-0.4s0.7-0.6,1-1c0.2-0.4,0.4-0.9,0.4-1.3c0-0.5-0.1-0.9-0.4-1.3c-0.2-0.4-0.6-0.8-1-1
			C223.6,12.7,223.1,12.6,222.7,12.6z"/>
		<path id="XMLID_116_" d="M221.4,16.9v-3.4h1.2c0.4,0,0.7,0,0.9,0.1c0.2,0.1,0.3,0.2,0.4,0.3c0.1,0.2,0.2,0.3,0.2,0.5
			c0,0.3-0.1,0.5-0.3,0.7c-0.2,0.2-0.4,0.3-0.7,0.3c0.1,0.1,0.2,0.1,0.3,0.2c0.1,0.1,0.3,0.4,0.5,0.7l0.4,0.7h-0.7l-0.3-0.5
			c-0.2-0.4-0.4-0.7-0.6-0.8c-0.1-0.1-0.2-0.1-0.4-0.1H222v1.5H221.4z M222,15h0.7c0.3,0,0.5,0,0.7-0.1c0.1-0.1,0.2-0.2,0.2-0.4
			c0-0.1,0-0.2-0.1-0.3c-0.1-0.1-0.1-0.1-0.2-0.2c-0.1,0-0.3-0.1-0.6-0.1H222V15z"/>
	</g>
</g>
</svg>
