<?xml version="1.0" encoding="utf-8"?>
<!-- Generator: Adobe Illustrator 16.0.0, SVG Export Plug-In . SVG Version: 6.00 Build 0)  -->
<!DOCTYPE svg PUBLIC "-//W3C//DTD SVG 1.1//EN" "http://www.w3.org/Graphics/SVG/1.1/DTD/svg11.dtd">
<svg version="1.1" id="Layer_1" xmlns="http://www.w3.org/2000/svg" xmlns:xlink="http://www.w3.org/1999/xlink" x="0px" y="0px"
	 width="170px" height="170px" viewBox="0 0 170 170" enable-background="new 0 0 170 170" xml:space="preserve">
<g>
	<rect x="126.074" y="17.349" fill="#009366" width="9.325" height="42.871"/>
	<rect x="109.299" y="34.122" fill="#009366" width="42.87" height="9.325"/>
	<path fill="#009366" d="M68.462,121.576l3.795,3.559l-4.866,12.617c0,0,1.671,3.421,6.385,6.311c0,0,5.321-3.118,6.079-6.918
		l-4.293-11.994l3.477-3.706c0.685-0.729,1.026-1.718,0.923-2.713c-0.153-1.444-0.929-3.443-3.757-4.326
		c0,0-3.047-0.658-5.013,0.087c0,0-1.965,0.711-3.158,2.223C66.879,118.178,67.102,120.303,68.462,121.576"/>
	<path fill="#009366" d="M92.446,118.598v7.804c0,0-10.866,19.155-18.811,22.904c-7.946-3.749-18.81-22.904-18.81-22.904v-7.804
		c-36.993,4.661-36.993,18.039-36.993,18.039v16.014h55.803h55.802v-16.014C129.438,136.637,129.438,123.259,92.446,118.598"/>
	<path fill="#009366" d="M100.126,73.497c-0.707-0.303-0.302-5.17-0.302-5.17c2.634-2.331,1.823-11.556,1.823-11.556
		c-8.816-19.867-32.027-17.125-32.027-17.125c-15.708,0.609-22.195,15-22.195,15c-3.647,5.372,0.507,17.635,0.507,17.635
		c0.266,0.851-0.203,1.926-0.203,1.926c-6.486,1.521-0.101,12.77-0.101,12.77c2.634,1.014,4.054,7.904,4.054,7.904
		c3.344,7.299,10.742,12.669,10.742,12.669c9.325,7.501,22.397,0.913,22.397,0.913c8.62-5.942,15.813-21.893,15.813-21.893
		C106.309,77.146,100.126,73.497,100.126,73.497z M95.263,85.355c-1.315,0.709-2.837,4.965-2.837,4.965
		c-1.419,4.156-7.198,11.148-7.198,11.148c-5.166,7.602-17.938,3.041-17.938,3.041c-8.007-3.244-12.566-18.142-12.566-18.142
		l-2.027-2.129c-5.168-6.182-1.114-8.006-1.114-8.006c0.811-0.304,3.141,2.331,3.141,2.331c1.014,0.101,1.115-4.256,1.115-4.256
		c-1.418,0.303-2.229-1.521-2.229-1.521l0.101-10.033c3.243-6.284,8.817-5.98,8.817-5.98c12.871,13.986,31.62,12.263,31.62,12.263
		c0.608,0.305,0.405,1.926,0.405,1.926l-0.505,4.054c-2.837,2.434-0.913,4.764-0.913,4.764c1.318-3.243,3.65-3.143,3.65-3.143
		C100.635,79.78,95.263,85.355,95.263,85.355z"/>
</g>
</svg>
