<?xml version="1.0" encoding="utf-8"?>
<!-- Generator: Adobe Illustrator 16.0.0, SVG Export Plug-In . SVG Version: 6.00 Build 0)  -->
<!DOCTYPE svg PUBLIC "-//W3C//DTD SVG 1.1//EN" "http://www.w3.org/Graphics/SVG/1.1/DTD/svg11.dtd">
<svg version="1.1" id="Layer_1" xmlns="http://www.w3.org/2000/svg" xmlns:xlink="http://www.w3.org/1999/xlink" x="0px" y="0px"
	 width="170px" height="170px" viewBox="0 0 170 170" enable-background="new 0 0 170 170" xml:space="preserve">
<g>
	<path fill="#009366" d="M137.15,25.819H32.847c-8.642,0-15.648,7.005-15.648,15.649v75.664c0,8.645,7.006,15.65,15.648,15.65
		H137.15c8.643,0,15.65-7.006,15.65-15.65V41.469C152.801,32.825,145.793,25.819,137.15,25.819z M144.52,117.885
		c0,4.304-3.521,7.824-7.824,7.824H33.305c-4.305,0-7.826-3.521-7.826-7.824v-75.96c0-4.304,3.521-7.824,7.826-7.824h103.391
		c4.303,0,7.824,3.521,7.824,7.824V117.885z"/>
	<path fill="#009366" d="M133.016,41.691H36.982c-2.152,0-3.912,1.761-3.912,3.913v67.912c0,2.152,1.76,3.912,3.912,3.912h96.033
		c2.152,0,3.914-1.76,3.914-3.912V45.604C136.93,43.452,135.168,41.691,133.016,41.691z M81.958,95.025
		c-1.115,0.338-2.326,0.027-3.16-0.788L61.243,77.115l-3.681,10.352L45.427,56.01l30.364,12.94l-9.489,2.76l17.046,18.202
		c0.613,0.654,1.011,1.519,0.956,2.412C84.207,93.957,83.06,94.693,81.958,95.025z"/>
	<path fill="#009366" d="M104.84,144.182H65.159c-2.277,0-4.141-1.863-4.141-4.141s1.863-4.141,4.141-4.141h39.681
		c2.277,0,4.141,1.863,4.141,4.141S107.117,144.182,104.84,144.182"/>
</g>
</svg>
