<?xml version="1.0" encoding="utf-8"?>
<!-- Generator: Adobe Illustrator 16.0.0, SVG Export Plug-In . SVG Version: 6.00 Build 0)  -->
<!DOCTYPE svg PUBLIC "-//W3C//DTD SVG 1.1//EN" "http://www.w3.org/Graphics/SVG/1.1/DTD/svg11.dtd">
<svg version="1.1" id="Layer_1" xmlns="http://www.w3.org/2000/svg" xmlns:xlink="http://www.w3.org/1999/xlink" x="0px" y="0px"
	 width="170px" height="170px" viewBox="0 0 170 170" enable-background="new 0 0 170 170" xml:space="preserve">
<g>
	<polygon fill="#009366" points="50.713,79.357 50.713,85.25 57.23,85.25 57.23,105.559 64.939,105.559 64.939,24.578 
		75.408,24.578 75.408,79.357 83.117,79.357 83.117,54.074 96.342,54.074 96.342,48.457 83.117,48.457 83.117,24.578 76.786,24.578 
		76.786,17.432 63.75,17.432 63.75,24.578 57.23,24.578 57.23,78.105 50.713,78.105 50.713,72.211 33.162,72.211 33.162,77.039 
		33.162,79.357 33.162,89.953 38.93,89.953 38.93,79.357 	"/>
	<polygon fill="#009366" points="96.342,54.041 96.342,58.859 96.342,60.24 96.342,79.357 103.111,79.357 103.111,60.24 
		113.766,60.24 113.766,54.041 	"/>
	<polygon fill="#009366" points="113.768,60.418 113.768,63.934 113.768,67.449 113.768,84.24 120.536,84.24 120.536,67.449 
		125.926,67.449 125.926,60.418 	"/>
	<rect x="125.926" y="67.449" fill="#009366" width="5.767" height="6.176"/>
	<rect x="131.692" y="73.625" fill="#009366" width="7.146" height="40.771"/>
	<polygon fill="#009366" points="125.362,134.264 119.032,134.264 119.032,145.422 69.892,145.422 69.892,133.732 63.593,133.732 
		63.593,121.416 57.294,121.416 57.294,133.732 62.245,133.732 62.245,145.422 62.245,146.049 62.245,152.568 119.032,152.568 
		127.494,152.568 127.494,145.422 127.494,134.781 131.692,134.781 131.692,114.396 125.362,114.396 	"/>
	<rect x="38.93" y="89.953" fill="#009366" width="5.766" height="7.018"/>
	<rect x="44.695" y="96.971" fill="#009366" width="6.3" height="13.76"/>
	<rect x="50.995" y="110.73" fill="#009366" width="6.298" height="10.686"/>
</g>
</svg>
