<?xml version="1.0" encoding="utf-8"?>
<!-- Generator: Adobe Illustrator 16.0.0, SVG Export Plug-In . SVG Version: 6.00 Build 0)  -->
<!DOCTYPE svg PUBLIC "-//W3C//DTD SVG 1.1//EN" "http://www.w3.org/Graphics/SVG/1.1/DTD/svg11.dtd">
<svg version="1.1" id="Layer_1" xmlns="http://www.w3.org/2000/svg" xmlns:xlink="http://www.w3.org/1999/xlink" x="0px" y="0px"
	 width="570px" height="170px" viewBox="0 0 570 170" enable-background="new 0 0 570 170" xml:space="preserve">
<path fill="#009366" d="M57.81,47.367h-37.02c-3.5,0-6.361,2.862-6.361,6.361v82.275v2.616v16.083h49.742v-16.083v-2.616V53.728
	C64.171,50.229,61.306,47.367,57.81,47.367"/>
<path fill="#999998" d="M117.648,69.059H80.629c-3.497,0-6.362,2.862-6.362,6.361v47.494v5.233v26.555h49.742v-26.555v-5.233V75.42
	C124.009,71.92,121.149,69.059,117.648,69.059"/>
<g>
	<path fill="#CACCCB" d="M231.764,154.825l-9.047-27.717h3.865l4.318,13.653c1.193,3.742,2.221,7.114,2.961,10.362h0.083
		c0.781-3.207,1.933-6.703,3.166-10.321l4.688-13.694h3.825l-9.911,27.717H231.764z"/>
	<path fill="#CACCCB" d="M252.817,127.108v27.717h-3.578v-27.717H252.817z"/>
	<path fill="#CACCCB" d="M274.036,141.83h-10.774v9.993h12.008v3.002h-15.585v-27.717h14.968v3.002h-11.391v8.76h10.774V141.83z"/>
	<path fill="#CACCCB" d="M285.055,154.825l-7.032-27.717h3.783l3.29,14.023c0.822,3.454,1.563,6.908,2.056,9.581h0.082
		c0.453-2.755,1.316-6.045,2.262-9.623l3.701-13.981h3.742l3.372,14.064c0.781,3.289,1.521,6.579,1.933,9.499h0.082
		c0.576-3.043,1.357-6.127,2.221-9.582l3.66-13.981h3.66l-7.854,27.717h-3.742l-3.495-14.434c-0.864-3.537-1.439-6.251-1.81-9.047
		h-0.083c-0.493,2.755-1.109,5.469-2.138,9.047l-3.947,14.434H285.055z"/>
	<path fill="#CACCCB" d="M315.441,150.466c1.604,0.987,3.947,1.81,6.415,1.81c3.66,0,5.798-1.933,5.798-4.729
		c0-2.591-1.479-4.071-5.222-5.511c-4.523-1.604-7.32-3.948-7.32-7.854c0-4.317,3.578-7.525,8.965-7.525
		c2.838,0,4.894,0.658,6.127,1.357l-0.986,2.919c-0.905-0.493-2.756-1.315-5.264-1.315c-3.783,0-5.223,2.262-5.223,4.153
		c0,2.591,1.686,3.865,5.51,5.346c4.688,1.81,7.073,4.071,7.073,8.143c0,4.276-3.166,7.978-9.705,7.978
		c-2.673,0-5.592-0.781-7.072-1.769L315.441,150.466z"/>
</g>
<g>
	<path fill="#009366" d="M222.377,103.244c2.625,1.615,6.463,2.962,10.502,2.962c5.992,0,9.493-3.164,9.493-7.742
		c0-4.241-2.424-6.665-8.55-9.021c-7.406-2.626-11.983-6.463-11.983-12.858c0-7.069,5.857-12.32,14.676-12.32
		c4.645,0,8.011,1.077,10.031,2.222l-1.616,4.78c-1.481-0.808-4.511-2.154-8.617-2.154c-6.193,0-8.55,3.703-8.55,6.799
		c0,4.241,2.76,6.328,9.021,8.752c7.675,2.961,11.58,6.665,11.58,13.33c0,7.001-5.184,13.06-15.888,13.06
		c-4.376,0-9.156-1.278-11.579-2.895L222.377,103.244z"/>
	<path fill="#009366" d="M267.548,69.987h-13.801v-4.982h33.594v4.982h-13.868v40.393h-5.925V69.987z"/>
	<path fill="#009366" d="M296.292,96.107l-4.712,14.272h-6.059l15.417-45.375h7.069l15.483,45.375h-6.261l-4.847-14.272H296.292z
		 M311.171,91.53l-4.443-13.061c-1.01-2.962-1.684-5.655-2.356-8.28h-0.135c-0.673,2.693-1.414,5.453-2.289,8.213l-4.443,13.128
		H311.171z"/>
	<path fill="#009366" d="M335.337,69.987h-13.801v-4.982h33.594v4.982h-13.868v40.393h-5.925V69.987z"/>
	<path fill="#009366" d="M368.593,65.005v45.375h-5.857V65.005H368.593z"/>
	<path fill="#009366" d="M380.507,103.244c2.626,1.615,6.463,2.962,10.502,2.962c5.992,0,9.492-3.164,9.492-7.742
		c0-4.241-2.423-6.665-8.55-9.021c-7.405-2.626-11.982-6.463-11.982-12.858c0-7.069,5.856-12.32,14.676-12.32
		c4.646,0,8.011,1.077,10.031,2.222l-1.616,4.78c-1.481-0.808-4.511-2.154-8.617-2.154c-6.193,0-8.55,3.703-8.55,6.799
		c0,4.241,2.76,6.328,9.021,8.752c7.674,2.961,11.579,6.665,11.579,13.33c0,7.001-5.184,13.06-15.888,13.06
		c-4.376,0-9.156-1.278-11.58-2.895L380.507,103.244z"/>
	<path fill="#009366" d="M425.678,69.987h-13.801v-4.982h33.594v4.982h-13.868v40.393h-5.925V69.987z"/>
	<path fill="#009366" d="M458.866,65.005v45.375h-5.857V65.005H458.866z"/>
	<path fill="#009366" d="M503.364,108.899c-2.154,1.076-6.463,2.153-11.983,2.153c-12.791,0-22.418-8.078-22.418-22.956
		c0-14.205,9.627-23.832,23.697-23.832c5.654,0,9.223,1.211,10.771,2.02l-1.414,4.78c-2.222-1.077-5.386-1.885-9.155-1.885
		c-10.638,0-17.706,6.8-17.706,18.715c0,11.108,6.396,18.244,17.437,18.244c3.567,0,7.203-0.74,9.56-1.885L503.364,108.899z"/>
	<path fill="#009366" d="M512.45,103.244c2.626,1.615,6.463,2.962,10.502,2.962c5.992,0,9.492-3.164,9.492-7.742
		c0-4.241-2.423-6.665-8.55-9.021c-7.405-2.626-11.982-6.463-11.982-12.858c0-7.069,5.856-12.32,14.676-12.32
		c4.646,0,8.011,1.077,10.031,2.222l-1.616,4.78c-1.481-0.808-4.511-2.154-8.617-2.154c-6.193,0-8.55,3.703-8.55,6.799
		c0,4.241,2.76,6.328,9.021,8.752c7.674,2.961,11.579,6.665,11.579,13.33c0,7.001-5.184,13.06-15.888,13.06
		c-4.376,0-9.156-1.278-11.58-2.895L512.45,103.244z"/>
</g>
<text transform="matrix(1 0 0 1 218.0684 191.1611)"><tspan x="0" y="0" fill="#FFFFFF" font-family="'Helvetica-Bold'" font-size="67.3186" letter-spacing="2"> </tspan><tspan x="16.762" y="0" fill="#FFFFFF" font-family="'Helvetica-Bold'" font-size="67.3186" letter-spacing="2">  </tspan><tspan x="50.419" y="0" fill="#FFFFFF" font-family="'Helvetica-Bold'" font-size="67.3186"> </tspan></text>
<path fill="#333333" d="M177.3,9.217h-37.019c-3.501,0-6.362,2.862-6.362,6.361v82.275v2.616v54.232h49.742V100.47v-2.616V15.579
	C183.662,12.08,180.796,9.217,177.3,9.217"/>
</svg>
