<?xml version="1.0" encoding="utf-8"?>
<!-- Generator: Adobe Illustrator 16.0.0, SVG Export Plug-In . SVG Version: 6.00 Build 0)  -->
<!DOCTYPE svg PUBLIC "-//W3C//DTD SVG 1.1//EN" "http://www.w3.org/Graphics/SVG/1.1/DTD/svg11.dtd">
<svg version="1.1" id="Layer_1" xmlns="http://www.w3.org/2000/svg" xmlns:xlink="http://www.w3.org/1999/xlink" x="0px" y="0px"
	 width="170px" height="170px" viewBox="0 0 170 170" enable-background="new 0 0 170 170" xml:space="preserve">
<g>
	<rect x="86.845" y="48.312" fill="#009366" width="6.015" height="39.894"/>
	
		<rect x="99.912" y="78.208" transform="matrix(0.5573 -0.8303 0.8303 0.5573 -33.7716 127.5815)" fill="#009366" width="5.683" height="34.505"/>
	<path fill="#009366" d="M18.485,74.448h26.462c0,0,1.503,0.342,0,2.004L32.919,91.488c0,0-0.964,0.902-2.205,0L18.272,76.98
		C18.272,76.98,16.406,74.925,18.485,74.448"/>
	<path fill="#009366" d="M95.455,24.524c-31.803-2.321-59.694,19.638-65.249,50.487l6.27,1.13
		c5.061-28.096,30.788-47.967,59.864-45.146c26.669,2.585,47.852,24.456,49.657,51.189c2.175,32.197-23.401,59.09-55.144,59.09
		c-19.985,0-38.477-10.855-48.255-28.328l-0.041,0.021v-0.017h-6.028l0.238,1.459c0.178,1.089,0.542,2.147,1.106,3.095
		c11.1,18.635,31.246,30.14,52.979,30.14c35.429,0,63.972-30.04,61.495-65.988C150.257,51.294,125.81,26.739,95.455,24.524"/>
</g>
</svg>
