<?xml version="1.0" encoding="utf-8"?>
<!-- Generator: Adobe Illustrator 16.0.0, SVG Export Plug-In . SVG Version: 6.00 Build 0)  -->
<!DOCTYPE svg PUBLIC "-//W3C//DTD SVG 1.1//EN" "http://www.w3.org/Graphics/SVG/1.1/DTD/svg11.dtd">
<svg version="1.1" id="Layer_1" xmlns="http://www.w3.org/2000/svg" xmlns:xlink="http://www.w3.org/1999/xlink" x="0px" y="0px"
	 width="170px" height="170px" viewBox="0 0 170 170" enable-background="new 0 0 170 170" xml:space="preserve">
<g>
	<path fill="#009366" d="M150.846,83.27c0-36.203-29.349-65.555-65.554-65.555S19.737,47.066,19.737,83.27
		c0,5.547,0.704,10.928,2.002,16.07c-1.641,1.596-2.585,3.373-2.585,5.256c0,1.548,0.647,3.021,1.781,4.388
		c-1.138,1.361-1.781,2.837-1.781,4.384c0,1.55,0.647,3.025,1.781,4.39c-1.138,1.362-1.781,2.838-1.781,4.387
		c0,1.543,0.644,3.015,1.771,4.375c-1.141,1.365-1.771,2.847-1.771,4.398c0,1.548,0.646,3.022,1.779,4.387
		c-1.138,1.362-1.779,2.839-1.779,4.387c0,6.79,11.938,12.291,26.664,12.291c9.259,0,17.411-2.178,22.19-5.479
		c4.833,1.32,9.886,2.105,15.097,2.278c4.807,2.165,11.374,3.505,18.625,3.505c14.725,0,26.664-5.505,26.664-12.291
		c0-1.549-0.641-3.026-1.778-4.388c0.757-0.913,1.29-1.875,1.558-2.878C142.034,120.722,150.846,103.051,150.846,83.27z
		 M101.365,126.112c-11.195,0-20.27-2.301-20.27-5.144c0-2.839,9.075-5.143,20.27-5.143s20.271,2.304,20.271,5.143
		C121.637,123.812,112.561,126.112,101.365,126.112z M81.213,130.292c4.89,2.716,12.264,4.444,20.517,4.444
		c7.67,0,14.566-1.501,19.43-3.893c-1.986,2.312-10.089,4.045-19.795,4.045C90.899,134.889,82.292,132.876,81.213,130.292z
		 M29.419,83.27c0-30.857,25.015-55.871,55.873-55.871s55.872,25.014,55.872,55.871c0,13.901-5.098,26.588-13.504,36.353
		c-2.771-5.425-13.314-9.47-25.93-9.47c-14.727,0-26.663,5.506-26.663,12.293c0,1.544,0.645,3.018,1.773,4.38
		c-1.138,1.364-1.773,2.844-1.773,4.396c0,1.542,0.644,3.012,1.77,4.372c-0.697,0.834-1.199,1.713-1.488,2.624
		c-1.106-0.195-2.203-0.42-3.286-0.68c-0.298-0.771-0.766-1.517-1.363-2.231c1.133-1.366,1.78-2.841,1.78-4.39
		c0-1.55-0.639-3.027-1.778-4.39c1.132-1.363,1.778-2.837,1.778-4.384c0-1.55-0.638-3.027-1.778-4.391
		c1.132-1.363,1.778-2.839,1.778-4.386s-0.645-3.021-1.782-4.383c1.134-1.364,1.782-2.841,1.782-4.389
		c0-6.792-11.938-12.293-26.663-12.293c-5.667,0-10.912,0.822-15.233,2.211C29.838,90.88,29.419,87.124,29.419,83.27z
		 M45.452,108.262c-11.195,0-20.271-2.303-20.271-5.144c0-2.838,9.075-5.143,20.271-5.143s20.272,2.305,20.272,5.143
		C65.724,105.959,56.647,108.262,45.452,108.262z M45.818,116.887c7.669,0,14.563-1.501,19.428-3.893
		c-1.99,2.312-10.091,4.045-19.794,4.045c-10.464,0-19.07-2.014-20.151-4.597C30.191,115.158,37.565,116.887,45.818,116.887z
		 M45.818,125.659c7.671,0,14.564-1.501,19.429-3.89c-1.987,2.31-10.09,4.041-19.795,4.041c-10.466,0-19.074-2.013-20.152-4.594
		C30.19,123.931,37.564,125.659,45.818,125.659z M25.301,129.991c4.891,2.715,12.264,4.444,20.517,4.444
		c7.668,0,14.561-1.502,19.425-3.89c-1.993,2.307-10.091,4.039-19.792,4.039C34.99,134.585,26.383,132.574,25.301,129.991z
		 M45.452,143.361c-10.466,0-19.074-2.014-20.152-4.597c4.891,2.714,12.265,4.444,20.519,4.444c7.671,0,14.564-1.502,19.429-3.892
		C63.26,141.628,55.157,143.361,45.452,143.361z M101.365,143.66c-10.463,0-19.068-2.01-20.151-4.592
		c4.89,2.715,12.264,4.443,20.516,4.443c7.669,0,14.563-1.5,19.428-3.891C119.164,141.931,111.066,143.66,101.365,143.66z"/>
	<circle fill="#009366" cx="85.19" cy="39.582" r="8.168"/>
	<circle fill="#009366" cx="128.355" cy="84.361" r="8.168"/>
	<path fill="#009366" d="M80.68,89.063c0.716,0.679,1.581,1.096,2.485,1.298c0.059,0.016,0.116,0.035,0.176,0.048
		c0.244,0.044,0.49,0.064,0.736,0.076c0.1,0.005,0.194,0.028,0.293,0.028h23.224c2.933,0,5.332-2.398,5.332-5.332
		c0-2.931-2.399-5.331-5.332-5.331h-21.14L58.072,53.04c-2.131-2.016-5.523-1.917-7.537,0.214c-2.014,2.131-1.917,5.524,0.214,7.538
		L80.68,89.063z"/>
</g>
</svg>
