<?xml version="1.0" encoding="utf-8"?>
<!-- Generator: Adobe Illustrator 16.0.0, SVG Export Plug-In . SVG Version: 6.00 Build 0)  -->
<!DOCTYPE svg PUBLIC "-//W3C//DTD SVG 1.1//EN" "http://www.w3.org/Graphics/SVG/1.1/DTD/svg11.dtd">
<svg version="1.1" id="Layer_1" xmlns="http://www.w3.org/2000/svg" xmlns:xlink="http://www.w3.org/1999/xlink" x="0px" y="0px"
	 width="170px" height="170px" viewBox="0 0 170 170" enable-background="new 0 0 170 170" xml:space="preserve">
<g>
	<path fill="#009366" d="M130.151,75.154c0,12.724-0.122,25.446,0.073,38.164c0.06,3.806-0.854,6.601-3.702,9.338
		c-9.018,8.666-17.767,17.616-26.506,26.566c-2.026,2.077-4.073,3.087-7.07,3.053c-14.18-0.151-28.363-0.027-42.544-0.088
		c-6.875-0.028-10.536-3.787-10.542-10.807c-0.029-35.247,0.067-70.494-0.088-105.738c-0.028-6.331,3.068-9.812,8.605-11.29
		c3.28-0.878,7.082-1.766,7.21,4.215c0.082,3.73,3.486,5.019,6.827,4.954c3.321-0.063,6.359-1.331,6.58-5.217
		c0.211-3.716,2.18-4.434,5.347-4.363c5.626,0.121,11.261,0.081,16.891,0.021c4.473-0.05,8.924-0.952,10.057,5.726
		c0.553,3.262,4.317,4.402,7.666,3.788c2.987-0.55,5.805-2.025,5.653-5.625c-0.182-4.317,2.521-4.083,5.307-3.843
		c6.357,0.55,10.178,4.623,10.215,11.105C130.203,48.461,130.151,61.81,130.151,75.154 M42.901,94.449
		c0,15.007-0.037,30.016,0.015,45.021c0.027,7.587,1.733,9.332,9.009,9.355c11.879,0.04,23.771-0.252,35.639,0.135
		c4.96,0.16,6.024-1.626,5.736-6.081c-0.35-5.396-0.114-10.834-0.073-16.254c0.063-8.698,3.281-11.971,12.094-12.139
		c5.417-0.107,10.854-0.252,16.254,0.075c4.439,0.271,5.687-1.365,5.64-5.714c-0.202-19.802-0.051-39.605-0.105-59.409
		c-0.025-9.205-2.412-11.646-11.435-11.673c-20.427-0.058-40.855-0.061-61.283,0c-8.959,0.029-11.415,2.529-11.461,11.658
		C42.853,64.432,42.908,79.44,42.901,94.449 M123.782,118.721c-6.968,0-13.361-0.083-19.749,0.032
		c-3.71,0.066-6.633,1.655-6.754,5.764c-0.205,6.927-0.056,13.869-0.056,21.141C106.193,136.561,114.678,127.954,123.782,118.721"/>
	<path fill="#009366" d="M64.119,22.576c-0.75,1.61,1.421,4.809-2.026,4.735c-2.708-0.055-1.647-2.876-1.607-4.481
		c0.045-1.823-1.195-4.974,1.632-5.102C65.281,17.584,63.463,20.859,64.119,22.576"/>
	<path fill="#009366" d="M105.92,22.656c0.545-1.669-0.916-4.737,1.399-4.729c3.189,0.01,2.238,3.328,2.275,5.435
		c0.029,1.485,0.824,3.962-1.588,3.984C104.43,27.382,106.662,24.23,105.92,22.656"/>
	<path fill="#009366" d="M81.491,93.761c8.749,0,17.498-0.055,26.248,0.047c1.66,0.02,4.331-0.912,4.533,1.814
		c0.192,2.601-2.325,2.528-4.152,2.531c-18.124,0.038-36.245,0.034-54.369-0.009c-1.582-0.004-3.844,0.185-3.925-2.02
		c-0.101-2.774,2.409-2.326,4.167-2.339C63.161,93.734,72.326,93.764,81.491,93.761"/>
	<path fill="#009366" d="M84.393,84.093c-10.006,0-20.013,0.038-30.018-0.038c-1.708-0.011-4.422,0.689-4.562-1.851
		c-0.177-3.232,2.828-2.339,4.68-2.345c20.43-0.063,40.859-0.055,61.288-0.014c1.965,0.003,5.051-0.579,4.993,2.173
		c-0.058,2.7-3.164,2.028-5.113,2.04C105.238,84.128,94.814,84.09,84.393,84.093"/>
	<path fill="#009366" d="M84.96,70.144c-10.192,0-20.385,0.046-30.576-0.047c-1.831-0.017-4.813,0.885-4.59-2.422
		c0.187-2.752,2.888-1.76,4.53-1.765c20.593-0.069,41.186-0.058,61.779-0.018c1.924,0.006,4.872-0.622,4.723,2.347
		c-0.115,2.274-2.837,1.89-4.662,1.896C105.762,70.157,95.361,70.146,84.96,70.144"/>
	<path fill="#009366" d="M84.941,52.004c10.424,0.003,20.849-0.035,31.271,0.042c1.46,0.013,3.817-0.893,4.035,1.568
		c0.248,2.787-2.194,2.518-4,2.518c-21.057,0.026-42.111,0.009-63.168,0.019c-1.746,0-3.869-0.175-3.9-2.134
		C49.144,51.85,51.365,52,53.045,52C63.678,52.007,74.309,52.004,84.941,52.004"/>
	<path fill="#009366" d="M72.463,112.133c-6.229,0.008-12.456,0.036-18.685-0.013c-1.602-0.012-3.79,0.259-3.978-1.941
		c-0.231-2.688,2.105-2.624,3.954-2.63c12.663-0.023,25.327-0.009,37.989,0.009c1.692,0.003,3.674,0.115,3.706,2.291
		c0.035,2.281-1.988,2.266-3.678,2.269C85.337,112.13,78.898,112.123,72.463,112.133"/>
	<path fill="#009366" d="M67.087,121.395c4.571,0,9.141-0.012,13.712,0.006c1.743,0.005,3.61,0.231,3.548,2.471
		c-0.063,2.283-2.03,2.234-3.713,2.237c-9.142,0.009-18.282,0.015-27.425-0.012c-1.655-0.006-3.657,0.043-3.539-2.355
		c0.106-2.214,2.001-2.329,3.707-2.339C57.946,121.377,62.517,121.395,67.087,121.395"/>
</g>
</svg>
